<!DOCTYPE svg PUBLIC "-//W3C//DTD SVG 1.1//EN" "http://www.w3.org/Graphics/SVG/1.1/DTD/svg11.dtd">
<svg version="1.1" id="Layer_1" xmlns="http://www.w3.org/2000/svg" width="300px" height="73.975px">
<path fill="#002E6D" d="M116.064,9.826c0.265-0.013,0.794-0.08,0.966-0.146c0.318-0.12,0.411-0.359,0.411-0.649V2.26
	c0-0.292-0.093-0.544-0.411-0.677c-0.305-0.145-0.676-0.197-0.915-0.223V1.068h4.373c1.854,0,4.981,0.953,4.981,4.584
	c0,3.088-2.636,4.465-5.246,4.465h-4.16V9.826z M123.457,5.639c0-2.412-1.258-4.174-3.248-4.174c-0.277,0-0.742,0.014-1.005,0.026
	v7.274c0.039,0.623,0.411,0.954,1.271,0.954C122.554,9.719,123.457,8.024,123.457,5.639 M134.604,8.049
	c-0.145-1.231-0.41-2.292-1.788-2.292h-0.769v3.233c0,0.291,0.093,0.53,0.396,0.649c0.174,0.066,0.718,0.158,0.956,0.187v0.291
	h-4.506V9.827c0.241-0.015,0.809-0.094,0.982-0.16c0.316-0.119,0.409-0.358,0.409-0.662V2.233c0-0.292-0.08-0.543-0.409-0.663
	c-0.239-0.091-0.742-0.186-0.982-0.21V1.066h4.731c1.67,0,3.1,0.61,3.1,2.055c0,1.443-1.363,2.053-2.437,2.345v0.105
	c0.65,0.081,1.697,0.411,1.962,1.378c0.197,0.73,0.265,1.299,0.422,1.936c0.133,0.515,0.411,0.621,0.636,0.621
	c0.333,0,0.623-0.384,0.623-1.206V8.023h0.373l-0.015,0.293c-0.013,1.166-0.49,1.946-1.814,1.946
	C135.361,10.262,134.803,9.627,134.604,8.049 M132.59,5.359c1.166,0,2.161-0.463,2.161-1.987c0-1.443-0.809-1.92-1.869-1.92h-0.834
	v3.907H132.59z M141.194,10.116h8.055l0.173-2.649h-0.331c-0.159,0.424-0.676,1.484-1.142,1.948
	c-0.316,0.319-1.217,0.305-2.052,0.305c-1.271,0-1.496-0.132-1.496-1.166V5.625h0.992c0.702,0,0.955,0.199,1.14,0.398
	c0.185,0.197,0.411,0.9,0.45,1.297h0.358V3.599h-0.358c-0.039,0.343-0.225,1.007-0.45,1.231c-0.173,0.173-0.409,0.398-1.14,0.398
	h-0.992V1.451h1.391c0.411,0,0.767,0.014,1.087,0.053c0.623,0.094,1.324,1.166,1.483,1.762h0.358V1.067h-7.526V1.36
	c0.238,0.026,0.782,0.145,1.034,0.251c0.331,0.131,0.409,0.357,0.409,0.649v6.744c0,0.304-0.093,0.53-0.409,0.649
	c-0.187,0.08-0.796,0.145-1.034,0.172V10.116z M159.55,1.902c0,0.359-1.23,1.948-1.907,2.769c-0.569-0.794-1.669-2.306-1.669-2.781
	c0-0.359,0.583-0.477,1.364-0.53V1.066h-5.181V1.36c0.318,0.025,0.742,0.104,0.954,0.197c0.477,0.226,0.676,0.503,0.979,0.942
	c0.597,0.873,1.486,2.159,2.334,3.378c-0.638,0.754-1.431,1.829-2.252,2.809c-0.293,0.357-0.623,0.729-1.14,0.941
	c-0.253,0.105-0.611,0.184-0.916,0.212v0.291h3.75V9.839c-0.714-0.053-1.271-0.173-1.271-0.544c0-0.41,1.537-2.318,2.106-3.021
	c1.007,1.418,1.869,2.676,1.869,3.021c0,0.356-0.598,0.477-1.378,0.531v0.291h5.194V9.827c-0.32-0.028-0.782-0.081-0.967-0.187
	c-0.453-0.24-0.705-0.596-0.983-0.954c-0.355-0.464-1.854-2.678-2.517-3.605c0.596-0.728,1.326-1.682,2.054-2.571
	c0.293-0.356,0.624-0.728,1.142-0.94c0.237-0.107,0.607-0.186,0.911-0.21V1.066h-3.749V1.36
	C158.995,1.413,159.55,1.531,159.55,1.902 M165.227,10.116h8.057l0.171-2.649h-0.33c-0.159,0.424-0.675,1.484-1.141,1.948
	c-0.317,0.319-1.218,0.305-2.053,0.305c-1.271,0-1.498-0.132-1.498-1.166V5.625h0.996c0.701,0,0.951,0.199,1.138,0.398
	c0.187,0.197,0.411,0.9,0.451,1.297h0.358V3.599h-0.358c-0.04,0.343-0.227,1.007-0.451,1.231c-0.172,0.173-0.411,0.398-1.138,0.398
	h-0.996V1.451h1.392c0.41,0,0.77,0.014,1.086,0.053c0.623,0.094,1.324,1.166,1.485,1.762h0.357V1.067h-7.526V1.36
	c0.24,0.026,0.782,0.145,1.034,0.251c0.331,0.131,0.41,0.357,0.41,0.649v6.744c0,0.304-0.093,0.53-0.41,0.649
	c-0.185,0.08-0.794,0.145-1.034,0.172V10.116z M176.68,10.116h7.791l0.187-2.703h-0.318c-0.187,0.543-0.796,1.577-1.192,1.988
	c-0.277,0.293-1.1,0.332-1.815,0.332c-1.313,0-1.499-0.093-1.499-1.18V2.208c0-0.292,0.079-0.557,0.412-0.662
	c0.24-0.081,0.716-0.16,0.953-0.186V1.067h-4.518V1.36c0.239,0.026,0.741,0.145,0.981,0.251c0.33,0.146,0.41,0.37,0.41,0.66v6.732
	c0,0.291-0.093,0.53-0.41,0.662c-0.173,0.067-0.742,0.132-0.981,0.16V10.116z M194.358,7.441c0,1.629,1.246,2.888,3.631,2.888
	c1.564,0,3.378-0.861,3.378-3.008V3.479c0-0.955,0.094-1.565,0.424-1.789c0.306-0.199,0.994-0.306,1.219-0.331V1.066h-3.909V1.36
	c0.279,0.025,1.021,0.21,1.3,0.409c0.291,0.212,0.451,0.755,0.451,1.789v3.697c0,1.245-0.664,2.464-2.452,2.464
	c-1.775,0-2.266-1.073-2.266-2.424V2.18c0-0.291,0.08-0.544,0.409-0.649c0.227-0.079,0.703-0.146,0.944-0.171V1.066h-4.454V1.36
	c0.196,0.025,0.675,0.104,0.914,0.224c0.304,0.16,0.411,0.372,0.411,0.663V7.441 M213.628,10.184h0.675V3.492
	c0-0.928,0.108-1.563,0.425-1.788c0.265-0.187,0.995-0.318,1.22-0.345V1.067h-3.896v0.292c0.265,0.027,1.062,0.239,1.299,0.409
	c0.293,0.213,0.451,0.822,0.451,1.804v4.08l-5.182-6.585h-2.979v0.304c0.424,0.067,1.033,0.333,1.335,0.596
	c0.279,0.251,0.411,0.649,0.411,1.048v4.637c0,1.021-0.117,1.592-0.422,1.814c-0.226,0.16-0.994,0.331-1.219,0.358v0.292h3.907
	V9.825c-0.237-0.027-1.074-0.237-1.298-0.423c-0.291-0.239-0.45-0.796-0.45-1.815V2.909L213.628,10.184z M218.932,10.116h4.492
	V9.826c-0.238-0.028-0.81-0.146-0.967-0.212c-0.291-0.133-0.397-0.345-0.397-0.636V2.18c0-0.291,0.078-0.53,0.397-0.635
	c0.238-0.081,0.729-0.16,0.967-0.186V1.067h-4.492V1.36c0.254,0.026,0.716,0.157,0.955,0.251c0.318,0.131,0.409,0.345,0.409,0.636
	v6.797c0,0.292-0.091,0.516-0.409,0.635c-0.172,0.066-0.716,0.132-0.955,0.146V10.116z M227.591,2.339
	c0.332,0.915,1.896,5.288,2.822,7.884h0.705c0.793-1.896,2.742-6.598,3.153-7.553c0.198-0.438,0.371-0.809,0.74-1.046
	c0.238-0.133,0.609-0.238,0.861-0.253V1.067h-3.576v0.304c0.648,0.041,1.511,0.267,1.511,0.664c0,0.436-0.266,1.033-0.625,1.962
	c-0.25,0.661-1.085,2.714-1.683,4.12c-0.809-2.239-1.945-5.5-2.092-5.936c-0.042-0.105-0.065-0.238-0.065-0.331
	c0-0.267,0.528-0.411,1.257-0.49V1.067h-4.465V1.36c0.293,0.011,0.636,0.118,0.874,0.251C227.342,1.81,227.472,2.009,227.591,2.339
	 M238.41,10.116h8.055l0.173-2.649h-0.331c-0.159,0.424-0.676,1.484-1.14,1.948c-0.318,0.319-1.219,0.305-2.052,0.305
	c-1.273,0-1.498-0.132-1.498-1.166V5.625h0.992c0.703,0,0.955,0.199,1.14,0.398c0.188,0.197,0.411,0.9,0.451,1.297h0.358V3.599
	H244.2c-0.04,0.343-0.227,1.007-0.451,1.231c-0.173,0.173-0.409,0.398-1.14,0.398h-0.992V1.451h1.391
	c0.41,0,0.767,0.014,1.087,0.053c0.623,0.094,1.324,1.166,1.482,1.762h0.358V1.067h-7.525V1.36c0.24,0.026,0.78,0.145,1.033,0.251
	c0.329,0.131,0.411,0.357,0.411,0.649v6.744c0,0.304-0.093,0.53-0.411,0.649c-0.186,0.08-0.793,0.145-1.033,0.172V10.116z
	 M255.574,8.049c-0.146-1.231-0.412-2.292-1.79-2.292h-0.767v3.233c0,0.291,0.093,0.53,0.397,0.649
	c0.172,0.066,0.714,0.158,0.954,0.187v0.291h-4.507V9.827c0.239-0.015,0.81-0.094,0.981-0.16c0.317-0.119,0.409-0.358,0.409-0.662
	V2.233c0-0.292-0.079-0.543-0.409-0.663c-0.238-0.091-0.742-0.186-0.981-0.21V1.066h4.731c1.668,0,3.1,0.61,3.1,2.055
	c0,1.443-1.364,2.053-2.437,2.345v0.105c0.648,0.081,1.693,0.411,1.96,1.378c0.199,0.73,0.265,1.299,0.422,1.936
	c0.134,0.515,0.413,0.621,0.639,0.621c0.33,0,0.623-0.384,0.623-1.206V8.023h0.369l-0.012,0.293
	c-0.014,1.166-0.49,1.946-1.816,1.946C256.329,10.262,255.771,9.627,255.574,8.049 M253.56,5.359c1.167,0,2.159-0.463,2.159-1.987
	c0-1.443-0.806-1.92-1.868-1.92h-0.833v3.907H253.56z M263.251,9.627c0.438,0.291,1.153,0.675,2.371,0.675
	c1.871,0,3.181-1.179,3.181-2.796c0-1.405-0.702-2-1.789-2.477c-0.517-0.226-1.14-0.411-1.762-0.688
	c-0.848-0.383-1.286-0.849-1.286-1.643c0-0.916,0.688-1.405,1.354-1.405c1.375,0,2.159,1.06,2.755,2.715h0.307l-0.055-3.073h-0.464
	l-0.398,0.569c-0.464-0.317-1.271-0.636-2.092-0.636c-1.723,0-2.85,1.141-2.85,2.557c0,1.153,0.516,1.988,1.59,2.452
	c0.597,0.251,1.14,0.437,1.803,0.688c0.888,0.333,1.365,0.874,1.365,1.67c0,0.953-0.571,1.642-1.671,1.642
	c-1.536,0-2.491-1.497-3.007-2.849h-0.317l0.078,3.208h0.449L263.251,9.627 M272.308,10.116h4.491V9.826
	c-0.238-0.028-0.809-0.146-0.967-0.212c-0.293-0.133-0.397-0.345-0.397-0.636V2.18c0-0.291,0.078-0.53,0.397-0.635
	c0.238-0.081,0.729-0.16,0.967-0.186V1.067h-4.491V1.36c0.25,0.026,0.716,0.157,0.953,0.251c0.318,0.131,0.411,0.345,0.411,0.636
	v6.797c0,0.292-0.093,0.516-0.411,0.635c-0.172,0.066-0.716,0.132-0.953,0.146V10.116z M281.697,10.116h4.73V9.826
	c-0.24-0.028-0.916-0.172-1.075-0.238c-0.304-0.133-0.411-0.372-0.411-0.662V1.451h0.464c0.346,0,0.716,0.014,1.022,0.053
	c0.568,0.079,1.284,1.353,1.443,1.935h0.331V1.067h-8.28v2.372h0.33c0.161-0.582,0.874-1.856,1.445-1.935
	c0.305-0.04,0.716-0.053,1.02-0.053h0.464V8.99c0,0.293-0.093,0.544-0.411,0.663c-0.172,0.066-0.835,0.159-1.072,0.172V10.116z
	 M292.752,10.116h4.744V9.826c-0.239-0.014-0.914-0.16-1.074-0.226c-0.306-0.133-0.411-0.371-0.411-0.662V7.296
	c0-0.61,0.08-1.008,0.438-1.63c0.567-1.02,1.563-2.705,1.96-3.259c0.267-0.371,0.465-0.57,0.822-0.782
	c0.185-0.107,0.53-0.239,0.769-0.265V1.067h-3.406V1.36c0.597,0.039,1.354,0.199,1.354,0.597c0,0.276-1.525,2.821-2.108,3.774
	c-1.021-1.773-2.054-3.774-2.054-3.934c0-0.292,0.862-0.411,1.326-0.437V1.067h-4.68V1.36c0.254,0.011,0.61,0.091,0.852,0.223
	c0.303,0.186,0.594,0.505,0.82,0.903c0.437,0.741,1.284,2.317,1.761,3.245c0.277,0.505,0.386,0.783,0.386,1.193v2.08
	c0,0.291-0.094,0.542-0.412,0.662c-0.173,0.067-0.847,0.146-1.086,0.16V10.116z"/>
<path fill="#010101" d="M137.557,72.144v-0.859c0.705-0.039,2.856-0.234,3.403-0.51c0.899-0.469,1.251-1.095,1.251-1.995V48.757
	l-10.128,22.957h-0.745c-0.469-1.527-1.329-3.757-2.073-5.438l-7.587-16.974v15.408c0,2.974,0.469,4.655,1.331,5.358
	c0.663,0.55,3.323,1.176,4.028,1.215v0.859h-11.733v-0.859c0.665-0.079,2.698-0.315,3.636-0.979
	c0.939-0.666,1.291-2.385,1.291-5.396V50.593c0-1.604-0.43-2.581-1.212-3.207c-0.938-0.742-2.464-1.056-3.519-1.095v-0.86h8.801
	l9.073,19.906l7.314-16.58c0.625-1.448,0.859-2.896,0.899-3.326h8.839v0.86c-0.705,0.039-2.192,0.273-2.895,0.509
	c-0.979,0.313-1.213,1.055-1.213,1.917v20.063c0,0.86,0.314,1.489,1.213,1.917c0.469,0.234,2.229,0.549,2.933,0.588v0.859H137.557z
	 M158.087,72.612c3.285,0,5.904-1.955,7.275-4.732l-0.705-0.469c-1.486,2.386-2.463,3.48-5.515,3.48
	c-4.185,0-5.827-3.598-5.827-8.643v-0.431h11.654v-0.352c0-3.989-1.955-7.509-7.315-7.509c-5.201,0-8.213,4.497-8.213,9.189
	C149.441,68.312,152.181,72.612,158.087,72.612 M157.618,54.855c2.971,0,3.559,3.21,3.559,6.025l-7.861,0.077
	C153.433,57.281,155.153,54.855,157.618,54.855 M187.065,71.791v-0.743c-0.705-0.037-1.839-0.194-2.309-0.508
	c-0.625-0.428-0.938-1.095-1.017-1.915V43.241l-0.274-0.274l-7.743,0.431v0.703c1.057,0.079,2.777,0.431,3.44,0.899
	c0.627,0.429,0.941,1.448,1.018,2.269v7.744c-0.47-0.195-2.268-1.055-4.732-1.055c-4.613,0-8.916,3.754-8.916,9.112
	c0,5.866,3.755,9.581,8.33,9.581c2.465,0,4.341-1.525,5.2-2.424l0.159,0.04v1.679l0.272,0.275L187.065,71.791z M180.181,69.131
	c-1.018,1.097-2.112,1.995-3.988,1.995c-3.951,0-5.671-3.715-5.671-7.625c0-5.359,2.267-8.684,5.241-8.684
	c2.697,0,3.988,1.916,4.418,3.248V69.131z M197.036,72.144V71.36c-0.509-0.038-1.095-0.192-1.723-0.469
	c-0.703-0.311-1.057-0.978-1.057-1.798v-14.59l-0.272-0.272l-6.649,0.43v0.745c0.705,0.037,1.84,0.427,2.309,0.741
	c0.626,0.431,0.978,1.136,1.056,1.956v11.225c0,0.782-0.314,1.525-1.056,1.76c-0.548,0.157-1.017,0.234-1.721,0.272v0.783H197.036z
	 M192.146,48.951c1.41,0,2.465-1.174,2.465-2.543c0-1.251-1.018-2.309-2.465-2.309c-1.29,0-2.387,1.137-2.387,2.466
	C189.759,47.854,190.855,48.951,192.146,48.951 M205.681,72.612c3.089,0,5.788-2.072,7.233-4.652l-0.741-0.549
	c-1.29,2.271-2.777,3.482-5.555,3.482c-3.44,0-5.476-3.441-5.476-8.02c0-5.906,2.426-7.979,4.732-7.979
	c1.369,0,2.151,0.273,2.348,1.408c0,0.743-0.51,0.781-0.51,2.426c0,1.525,1.41,1.955,2.191,1.955c1.369,0,2.034-0.9,2.034-2.191
	c0-2.384-2.034-4.535-6.063-4.535c-5.357,0-8.682,4.457-8.682,9.27C197.193,68.624,200.009,72.612,205.681,72.612 M222.613,72.144
	V71.36c-0.508-0.038-1.096-0.192-1.722-0.469c-0.701-0.311-1.056-0.978-1.056-1.798v-14.59l-0.273-0.272l-6.649,0.43v0.745
	c0.704,0.037,1.84,0.427,2.307,0.741c0.628,0.431,0.979,1.136,1.058,1.956v11.225c0,0.782-0.313,1.525-1.058,1.76
	c-0.546,0.157-1.015,0.234-1.72,0.272v0.783H222.613z M217.725,48.951c1.409,0,2.466-1.174,2.466-2.543
	c0-1.251-1.02-2.309-2.466-2.309c-1.291,0-2.388,1.137-2.388,2.466C215.337,47.854,216.434,48.951,217.725,48.951 M243.93,72.144
	V71.36c-0.705-0.037-1.176-0.192-1.722-0.43c-0.706-0.312-1.017-0.899-1.017-1.76v-9.035c0-3.715-1.684-6.18-5.32-6.18
	c-3.363,0-4.852,1.762-6.336,3.208h-0.078v-2.66l-0.271-0.272l-6.26,0.43v0.745c0.703,0.037,1.446,0.312,1.915,0.623
	c0.626,0.432,0.978,1.252,1.058,2.074v11.225c0,0.858-0.314,1.525-1.058,1.76c-0.548,0.157-1.018,0.235-1.72,0.272v0.783h9.23V71.36
	c-0.665-0.037-1.251-0.192-1.839-0.469c-0.703-0.311-1.056-0.898-1.056-1.76V58.455c0.43-0.899,2.031-2.737,4.888-2.737
	c1.685,0,3.246,1.483,3.246,4.184v9.427c0,0.858-0.31,1.525-1.055,1.76c-0.548,0.157-1.135,0.235-1.838,0.272v0.783H243.93z
	 M252.031,72.612c3.286,0,5.905-1.955,7.274-4.732l-0.703-0.469c-1.485,2.386-2.463,3.48-5.515,3.48
	c-4.186,0-5.827-3.598-5.827-8.643v-0.431h11.654v-0.352c0-3.989-1.955-7.509-7.313-7.509c-5.203,0-8.213,4.497-8.213,9.189
	C243.39,68.312,246.127,72.612,252.031,72.612 M251.563,54.855c2.972,0,3.56,3.21,3.56,6.025l-7.861,0.077
	C247.378,57.281,249.097,54.855,251.563,54.855 M123.346,34.149c3.179,0,4.85-1.986,5.707-3.928l-0.543-0.293
	c-0.815,1.818-2.008,3.135-4.559,3.135c-2.739,0-5.017-2.572-5.017-6.356c0-4.745,2.069-6.815,4.201-6.815
	c2.697,0,4.119,2.195,4.872,4.621h0.502l-0.085-5.164h-0.855l-0.628,1.065c-0.627-0.585-2.008-1.129-3.156-1.129
	c-4.204,0-7.36,3.283-7.36,7.589C116.425,31.307,119.228,34.149,123.346,34.149 M134.28,34.129c3.156,0,4.914-2.342,4.914-5.121
	c0-2.781-1.841-4.893-4.768-4.893c-2.928,0-4.872,2.068-4.872,5.037C129.554,32.227,131.77,34.129,134.28,34.129 M134.405,24.595
	c2.029,0,2.676,2.237,2.676,4.433c0,2.508-0.815,4.621-2.676,4.621c-1.966,0-2.739-2.175-2.739-4.663
	C131.667,26.999,132.23,24.595,134.405,24.595 M144.378,33.836v-0.417c-0.375-0.021-0.607-0.105-0.918-0.251
	c-0.377-0.166-0.567-0.501-0.567-0.961V18.385l-0.146-0.145l-3.784,0.23v0.397c0.375,0.02,1.214,0.25,1.464,0.418
	c0.333,0.229,0.523,0.71,0.565,1.189v11.855c0,0.46-0.168,0.815-0.565,0.94c-0.294,0.085-0.544,0.127-0.92,0.148v0.417H144.378z
	 M149.815,33.836v-0.417c-0.377-0.021-0.608-0.105-0.922-0.251c-0.375-0.166-0.564-0.501-0.564-0.961V18.385l-0.145-0.145
	l-3.784,0.23v0.397c0.375,0.02,1.21,0.25,1.462,0.418c0.334,0.229,0.523,0.71,0.563,1.189v11.855c0,0.46-0.165,0.815-0.563,0.94
	c-0.292,0.085-0.544,0.127-0.92,0.148v0.417H149.815z M154.329,34.087c1.757,0,3.157-1.045,3.889-2.53l-0.376-0.25
	c-0.794,1.273-1.317,1.861-2.948,1.861c-2.237,0-3.114-1.925-3.114-4.621v-0.23h6.229v-0.189c0-2.132-1.045-4.013-3.908-4.013
	c-2.783,0-4.391,2.403-4.391,4.913C149.709,31.787,151.172,34.087,154.329,34.087 M154.079,24.595c1.588,0,1.901,1.714,1.901,3.22
	l-4.201,0.041C151.842,25.891,152.762,24.595,154.079,24.595 M167.961,26.144c0.563,0,0.878-0.418,0.878-1.026
	c0-0.564-0.481-1.003-0.982-1.003c-0.898,0-1.337,0.147-2.112,0.628c-0.271,0-1.421-0.628-2.864-0.628
	c-2.069,0-3.742,1.151-3.742,3.074c0,1.233,0.9,2.193,2.363,2.78v0.125c-0.69,0.271-1.86,0.668-1.86,1.693
	c0,1.192,1.379,1.631,2.194,1.861v0.146c-2.218,0.063-3.303,1.046-3.303,2.216c0,1.589,1.254,2.55,4.559,2.55
	c3.596,0,5.247-1.483,5.247-3.407c0-1.758-1.443-2.781-2.676-2.844c-0.44-0.022-1.737-0.104-2.343-0.125
	c-1.025-0.041-2.235,0-2.235-1.025c0-0.459,0.354-0.71,0.729-0.898h1.213c1.714,0,3.534-1.15,3.534-2.969
	c0-0.626-0.291-1.442-0.796-1.986V25.16c0.314-0.23,0.607-0.355,1.297-0.355C167.062,25.683,167.271,26.144,167.961,26.144
	 M165.6,34.108c0.982,0.314,1.064,0.983,1.064,1.463c0,1.63-1.19,2.445-3.219,2.445c-2.322,0-3.136-1.044-3.136-1.88
	c0-1.296,0.563-1.882,2.047-2.174C164.239,33.962,165.139,34.045,165.6,34.108 M162.817,24.575c1.317,0,1.798,1.275,1.798,2.654
	c0,1.336-0.544,2.55-1.776,2.55c-1.046,0-1.736-1.128-1.736-2.613C161.103,25.788,161.48,24.575,162.817,24.575 M173.146,34.087
	c1.756,0,3.156-1.045,3.888-2.53l-0.377-0.25c-0.795,1.273-1.316,1.861-2.947,1.861c-2.236,0-3.115-1.925-3.115-4.621v-0.23h6.231
	v-0.189c0-2.132-1.046-4.013-3.909-4.013c-2.782,0-4.391,2.403-4.391,4.913C168.526,31.787,169.988,34.087,173.146,34.087
	 M172.896,24.595c1.589,0,1.9,1.714,1.9,3.22l-4.202,0.041C170.658,25.891,171.578,24.595,172.896,24.595 M186.484,34.129
	c3.157,0,4.913-2.342,4.913-5.121c0-2.781-1.841-4.893-4.766-4.893c-2.927,0-4.874,2.068-4.874,5.037
	C181.758,32.227,183.977,34.129,186.484,34.129 M186.608,24.595c2.03,0,2.677,2.237,2.677,4.433c0,2.508-0.815,4.621-2.677,4.621
	c-1.964,0-2.738-2.175-2.738-4.663C183.87,26.999,184.436,24.595,186.608,24.595 M198.968,21.146c0.729,0,1.126-0.69,1.126-1.088
	c0-0.897-0.646-1.837-2.215-1.837c-1.066,0-2.218,0.355-3.073,1.274c-1.023,1.087-1.424,2.549-1.424,4.286v0.648h-2.13v0.878h2.13
	v7.024c0,0.46-0.164,0.815-0.562,0.941c-0.294,0.084-0.544,0.125-0.922,0.147v0.417h5.312v-0.417
	c-0.378-0.022-1.046-0.125-1.358-0.25c-0.378-0.147-0.565-0.502-0.565-0.941v-6.921h2.634v-0.878h-2.634
	c0-0.355,0.021-0.96,0.021-1.274c0.104-3.199,0.753-4.454,2.07-4.454c0.23,0,0.417,0.146,0.502,0.397
	c0,0.461-0.127,0.795-0.127,1.108C197.752,20.917,198.485,21.146,198.968,21.146"/>
<line fill="none" stroke="#002E6D" stroke-width="0.424" x1="109.997" y1="0.804" x2="109.997" y2="72.255"/>
<path fill="#002E6D" d="M93.473,50.234c0.279-0.975,0.284-1.918,0.228-2.99C95.358,47.578,95.249,50.108,93.473,50.234
	 M82.672,67.893c0,0-0.328,1.789-1.37,1.274c-1.042-0.513-1.289-2.095-1.289-2.095S81.216,67.582,82.672,67.893 M90.429,70.779
	c-1.18,1.933-4.405-0.213-4.405-0.213c0.927-0.715,1.519-1.971,1.72-3.513C89.375,67.164,91.682,68.73,90.429,70.779 M77.196,16.501
	c-1.347-0.516-0.966-4.663-0.966-4.663c0.321,1.885,2.554,3.172,4.482,2.069C80.712,13.907,78.744,17.095,77.196,16.501
	 M74.16,48.622c-0.997,0.189-2.244-0.234-2.989-0.803c-2.399-1.842-3.384-6.781-3.563-10.577c1.026,2.182,2.662,5.625,5.631,4.714
	c1.015-0.311,2.216-1.662,2.216-1.662C76.382,42.826,77.161,48.054,74.16,48.622 M90.392,9.048c0.973,0.05,1.944,0.622,1.933,1.411
	c-0.018,1.207-1.167,1.501-2.06,1.414c-1.196-0.117-1.753-0.811-1.739-1.524C88.546,9.52,89.412,8.998,90.392,9.048 M77.389,4.009
	c1.432-3.438,5.156-4.006,5.156-4.006C79.668-0.085,70.51,1.374,69.676,10.458c-0.274,2.989,0.83,5.504,2.073,7.587
	c-1.544-1.172-3.403-3.17-3.678-5.86c-0.227-2.188,0.921-5.543,0.921-5.543c-2.196,2.599-4.542,5.854-4.029,10.254
	c0.478,4.105,3.21,6.875,5.06,9.194c-1.352-0.66-2.203-1.339-3.45-2.643c0.401,4.925,1.941,8.714,5.402,10.575
	c-4.412-0.422-5.29-3.528-6.552-7.009c-0.878-2.426-2.339-3.797-3.676-5.291c2.069,0.417,3.241,1.738,4.254,3.221
	c-0.657-4.251-3.722-6.092-8.051-6.667c1.836-1.664,4.877-0.028,6.288,0.767c0,0-0.888-1.748-1.689-2.607
	c-2.121-2.27-6.758-1.738-9.541-0.806c1.003-1.75,3.738-3.103,6.094-2.413c-1.45-1.263-3.243-2.147-5.519-2.298
	c-3.898-0.26-7.16,1.876-9.08,3.333c0.467-2.522,2.501-3.473,4.367-4.599c-6.507-1.082-9.804,2.979-11.954,7.013
	c-0.199-2.478,1.973-5.274,1.973-5.274c-7.977,3.292-6.802,12.286-6.802,12.286c-1.467-0.884-1.426-4.203-0.92-5.748
	c0,0-1.623,2.286-1.673,5.565c-0.051,3.314,2.276,6.846,2.276,6.846c-2.394-0.334-3.883-5.123-3.883-5.123
	c-1.305,6.729,4.434,12.152,4.434,12.152c-2.577-0.27-4.803-3.5-4.803-3.5c0.921,6.646,6.782,10.226,6.782,10.226
	c-1.832,0.377-4.512-1.453-4.512-1.453c2.25,5.11,5.579,7.562,5.579,7.562c-2.041,0.1-4.2-2.378-4.2-2.378
	c-0.187,2.378,1.138,5.505,1.138,5.505c-2.092-0.733-2.711-3.73-2.711-3.73c-1.707,2.394-1.371,5.942-1.371,5.942
	c-2.024-1.339-1.875-4.185-1.875-4.185c-1.975,0.987-3.118,4.917-3.118,4.917c-0.987-2.125,0.056-4.615,0.056-4.615
	c-2.745,0.701-4.485,3.949-4.485,3.949c-0.177-1.987,1.093-4.321,1.093-4.321c-2.159,0.067-4.005,3.132-4.005,3.132
	c-0.375-2.027,1.54-4.254,1.54-4.254c-2.376-0.249-4.418,2.297-4.418,2.297c-0.284-2.343,2.008-4.083,2.008-4.083
	c-2.527-0.604-4.414,1.638-4.414,1.638c-0.352-2.459,2.334-4.179,2.334-4.179c-2.026-0.868-4.23,0.936-4.23,0.936
	c-0.25-2.512,2.538-3.933,2.538-3.933c-1.708-1.172-3.946-0.025-3.946-0.025c0.366-2.059,2.927-2.612,2.927-2.612
	c-1.461-1.653-3.636-1.493-3.636-1.493c0.724-1.806,3.103-1.494,3.103-1.494c-1.146-1.623-3.231-2.184-3.231-2.184
	c1.305-1.104,3.163-0.338,3.163-0.338c-0.521-1.795-2.66-2.851-2.66-2.851c1.673-0.55,3.266,0.554,3.266,0.554
	c-0.199-1.641-1.939-3.156-1.939-3.156c1.939,0.083,3.28,1.5,3.28,1.5c-0.018-1.406-0.976-3.117-0.976-3.117
	c1.573,0.485,2.967,2.079,2.967,2.079c0.168-1.321-0.215-2.118-0.215-2.118c2.619,0.982,4.246,2.96,5.633,5.171
	c-0.709-4.071-3.275-7.003-7.354-7.356C4.519,24.792-0.013,32.852,0,38.759c0.018,6.891,2.352,11.472,5.425,15.938
	c3.57,5.182,9.748,9.179,15.527,10.367c-1.843,0.594-3.572,2.067-3.572,3.766c3.004,0.201,5.468,1.558,6.743,3.201h10.542
	c2.562,0,4.896-0.055,5.699-0.225c1.944-0.419,2.853-4.803,5.175-4.717c2.306,0.087,1.628,3.812-0.347,3.908
	c-0.647,0.033-0.947-0.273-1.495-0.456c2.087,4.994,8.29-0.652,5.401-4.142c3.368,0.138,3.145,4.494,0.806,4.944
	c3.675,0.356,4.742-3.301,3.052-5.945c-1.689-2.644-5.054-2.143-7.748-0.87c-2.694,1.271-5.121,2.259-6.915,2.487
	c-1.441,0.182-2.849,0.1-3.792-0.463c-2.753-1.629,2.149-4.337,3.331-5.057c4.347-2.636,8.979-5.801,9.428-12.069
	c0.335-4.675-1.425-7.118-2.875-10.001c-1.19-2.367-2.448-4.749-2.644-7.816c-0.264-4.179,2.819-7.288,6.553-7.126
	c5.241,0.223,7.925,4.392,8.277,9.655c0.138,2.086-0.319,4.571-0.459,6.669c-0.586,8.726,3.601,13.197,8.276,17.24
	c4.287,3.705,8.486,6.12,13.795,8.393c0.368,3.358,2.416,7.065,6.438,5.288c2.084,3.584,9.818,2.918,8.735-2.299
	c-0.504-2.432-4.098-2.786-3.845-5.567c0.122-1.323,1.644-2.042,3.041-1.561c1.482,0.511,2.179,2.763,2.068,4.367
	c2.32-3.866-0.04-9.514-4.824-8.39c-2.432,0.568-4.831,4.828-4.831,4.828c-3.083-1.667-6.033-3.322-6.033-3.322
	c7.084-0.349,11.567-3.484,14.196-8.287c3.421,0.79,5.735-1.566,4.828-4.368c0,0,2.991,0.92,3.328,3.366
	c0.341,2.448-2.925,3.007-4.776,1.812c0,0,1.568,3.746,4.572,3.015c3.005-0.734,2.678-3.921,2.024-5.19
	c-0.653-1.267-3.365-3.665-2.66-5.283c0.703-1.618,3.965-0.526,3.488,3.658c2.379-3.324,0.289-8.622-3.562-8.622
	c-2.85,0-3.983,2.433-4.713,4.944c0,0-0.925-0.356-1.957-0.115c-0.589-4.038-3.135-6.67-7.24-8.276
	c-3.668-1.438-7.236-3.928-7.585-7.934c-0.167-1.889,0.429-3.418,1.836-4.137c3.676-1.877,6.148,2.168,6.783,4.829
	c-0.042-3.126,1.138-4.625,2.528-6.209c-1.119-1.869-3.294-3.473-6.205-3.106c-2.02,0.257-3.969,1.349-3.969,1.349
	c0.952-2.167,2.604-5.999,6.266-6.176c2.971-0.141,4.418,2.477,5.288,5.06c0.491-4.874,3.094-8.251,5.52-10.807
	c-2.833,1.667-4.29-1.836-7.013-1.836c-3.891,0-5.773,4.296-9.08,4.713c-1.384,0.169-2.421-0.814-2.992-1.266
	C76.79,10.087,75.957,7.447,77.389,4.009"/>
</svg>
