<?xml version="1.0" encoding="UTF-8"?>
<svg version="1.1" xmlns="http://www.w3.org/2000/svg" width="1280" height="504">
<path d="M0 0 C12.44943299 -0.06995519 24.89881812 -0.12304005 37.3484087 -0.15543652 C43.13118822 -0.17099646 48.91383185 -0.19205492 54.6965332 -0.22631836 C60.29220068 -0.25926064 65.88773864 -0.27692542 71.48349571 -0.28463173 C73.602994 -0.29011338 75.72248637 -0.30081455 77.84192848 -0.31719017 C99.97233804 -0.4811526 124.79331976 0.31934225 142.21875 15.99609375 C147.5311524 21.55627611 153 29.028254 153 37 C153.66 37.33 154.32 37.66 155 38 C155.80012234 42.11613282 155.98924986 46.32261361 156.3125 50.5 C156.47975586 52.24023438 156.47975586 52.24023438 156.65039062 54.015625 C157.21563091 61.1031769 156.93583554 66.50535699 154 73 C153.73179443 73.62986816 153.46358887 74.25973633 153.18725586 74.90869141 C152.42980206 76.64194724 151.62224114 78.35304648 150.8125 80.0625 C150.28269531 81.18785156 149.75289062 82.31320313 149.20703125 83.47265625 C148.80871094 84.30667969 148.41039062 85.14070313 148 86 C147.34 86 146.68 86 146 86 C145.67 87.32 145.34 88.64 145 90 C144.34 90 143.68 90 143 90 C143 90.66 143 91.32 143 92 C141.390625 93.62109375 141.390625 93.62109375 139.25 95.4375 C138.55390625 96.03433594 137.8578125 96.63117188 137.140625 97.24609375 C131.33853007 102 131.33853007 102 129 102 C129 102.66 129 103.32 129 104 C128.360625 104.12375 127.72125 104.2475 127.0625 104.375 C126.381875 104.58125 125.70125 104.7875 125 105 C124.67 105.66 124.34 106.32 124 107 C122.35636866 107.72159424 120.68949614 108.39351421 119 109 C119 111.64 119 114.28 119 117 C119.66 117.33 120.32 117.66 121 118 C121.68805427 120.02976011 122.36689618 122.06302142 123.00390625 124.109375 C124.64724912 128.87829156 126.74994024 133.45059515 128.79296875 138.05859375 C130 141 130 141 130 143 C130.66 143.33 131.32 143.66 132 144 C133.05322266 145.82592773 133.05322266 145.82592773 134.1640625 148.18359375 C134.56367188 149.02857422 134.96328125 149.87355469 135.375 150.74414062 C135.7875 151.63294922 136.2 152.52175781 136.625 153.4375 C137.04523438 154.32244141 137.46546875 155.20738281 137.8984375 156.11914062 C141 162.73010095 141 162.73010095 141 165 C141.66 165.33 142.32 165.66 143 166 C143 166.99 143 167.98 143 169 C143.66 169 144.32 169 145 169 C145.46148437 169.95777344 145.92296875 170.91554687 146.3984375 171.90234375 C153.35067708 186.16176924 161.36048908 199.68243365 170.02734375 212.9609375 C171.68476917 215.51435725 173.29164513 218.08796215 174.875 220.6875 C176.72248142 223.83589471 176.72248142 223.83589471 178.50390625 225.48046875 C180.09357121 227.09503708 181.0118966 228.62587612 182.0625 230.625 C183.60541916 234.03314359 183.60541916 234.03314359 186 235 C187.74839516 237.65756064 188.99127482 239.97382445 190 243 C190.66 243 191.32 243 192 243 C192 243.66 192 244.32 192 245 C192.66 245 193.32 245 194 245 C194.391875 245.66 194.78375 246.32 195.1875 247 C198.15649861 251.91420459 202.07345015 256.07345015 206.125 260.125 C208 262 208 262 210.25 264.8125 C213.43766252 268.67633336 217.17555837 271.78563225 221 275 C221.80308594 275.71414063 222.60617188 276.42828125 223.43359375 277.1640625 C228.56668265 281.60307846 233.78675544 285.24129546 239.75 288.4375 C240.36367432 288.76741943 240.97734863 289.09733887 241.60961914 289.43725586 C247.92543161 292.69173285 253.87433941 294.18810347 260.9375 294.625 C262.08089844 294.69976562 263.22429687 294.77453125 264.40234375 294.8515625 C265.25957031 294.90054687 266.11679687 294.94953125 267 295 C268.125 299.75 268.125 299.75 267 302 C252.12576037 306.95807988 233.34350634 300.51849697 220 294 C219.13375 293.47921875 218.2675 292.9584375 217.375 292.421875 C214.67724643 290.80677253 212.00153177 289.90743984 209 289 C209 288.34 209 287.68 209 287 C206.66785852 285.79371992 204.50357861 284.8345262 202 284 C200.65473599 282.67870506 199.32409045 281.34251258 198 280 C195.13510645 277.64041051 192.16884556 275.40839093 189.22070312 273.15429688 C183.62278934 268.8245189 178.91402906 264.01683002 174.4296875 258.55078125 C172.88518193 256.75318225 172.88518193 256.75318225 170 255 C170 254.34 170 253.68 170 253 C169.34 253 168.68 253 168 253 C167.06922136 251.65554196 166.14836076 250.30333277 165.2734375 248.921875 C162.34895159 244.50823369 159.11209864 240.02549779 155.28515625 236.35546875 C154 235 154 235 154 233 C153.34 233 152.68 233 152 233 C150.30859375 230.69921875 150.30859375 230.69921875 148.4375 227.6875 C147.81746094 226.70136719 147.19742188 225.71523437 146.55859375 224.69921875 C145 222 145 222 144 219 C143.34 219 142.68 219 142 219 C141.34 217.02 140.68 215.04 140 213 C139.34 213 138.68 213 138 213 C137.67386719 212.40832031 137.34773437 211.81664062 137.01171875 211.20703125 C135.1212878 207.78864136 133.23913204 204.38755883 131.1875 201.0625 C130 199 130 199 130 197 C129.34 197 128.68 197 128 197 C126.82845707 194.71070947 125.66261926 192.41881638 124.5 190.125 C124.16613281 189.47402344 123.83226562 188.82304687 123.48828125 188.15234375 C121 183.2265625 121 183.2265625 121 181 C120.34 180.67 119.68 180.34 119 180 C117.89461904 178.0133018 116.86675795 175.98328908 115.875 173.9375 C115.24631901 172.65223354 114.61740386 171.3670816 113.98828125 170.08203125 C113.66166504 169.40994629 113.33504883 168.73786133 112.99853516 168.04541016 C111.37811685 164.72612786 109.71890969 161.42642672 108.0625 158.125 C105.99808844 154.0022029 103.93785668 149.87745269 101.890625 145.74609375 C99.9444142 141.82187874 97.97788255 137.90833122 96 134 C95.27103516 132.54787109 95.27103516 132.54787109 94.52734375 131.06640625 C94.10582031 130.26074219 93.68429688 129.45507812 93.25 128.625 C92.90453125 127.95726562 92.5590625 127.28953125 92.203125 126.6015625 C90.72423754 124.63291361 89.24929674 123.93563184 87 123 C87 122.34 87 121.68 87 121 C86.278125 121.020625 85.55625 121.04125 84.8125 121.0625 C82 121 82 121 79.6965332 120.50219727 C76.75037081 119.95350953 74.03873204 119.88698086 71.04296875 119.90234375 C69.93115234 119.90556641 68.81933594 119.90878906 67.67382812 119.91210938 C66.52333984 119.92048828 65.37285156 119.92886719 64.1875 119.9375 C62.43276367 119.94426758 62.43276367 119.94426758 60.64257812 119.95117188 C57.76166642 119.9629307 54.88085956 119.97936574 52 120 C51.97685965 129.09232091 51.95907625 138.18463173 51.94818783 147.27697563 C51.94296272 151.49862582 51.93587178 155.72025591 51.92456055 159.94189453 C51.9137185 164.01376672 51.90772036 168.08561953 51.90512276 172.15750504 C51.90327089 173.71328156 51.89965482 175.26905698 51.89426994 176.82482529 C51.88704205 178.99896307 51.8860098 181.17302016 51.88647461 183.34716797 C51.884254 184.58626923 51.88203339 185.82537048 51.87974548 187.10202026 C51.7992628 189.93998046 51.7992628 189.93998046 53 192 C53.15934983 194.00780784 53.31676462 196.01617492 53.42578125 198.02734375 C53.8756132 200.11086418 53.8756132 200.11086418 55.53125 201.68359375 C58.95495973 203.50921112 62.38661517 203.78038644 66.1875 204.125 C73.89358601 204.89358601 73.89358601 204.89358601 75 206 C75 207.65 75 209.3 75 211 C49.92 211 24.84 211 -1 211 C0 206 0 206 1 205 C4.33404008 204.61950503 7.6646055 204.27831121 11.00976562 204.01367188 C14.23149508 203.6805928 16.54606331 203.34153426 19.16385269 201.37195396 C21.53730236 198.30590728 21.79592589 196.09648332 22.23382568 192.25576782 C22.34667266 191.26681705 22.34667266 191.26681705 22.46179938 190.25788748 C23.24018255 182.82147004 23.28122542 175.37622846 23.25878906 167.90771484 C23.26150784 166.36011085 23.26507369 164.81250815 23.26940918 163.26490784 C23.27842862 159.11006401 23.27503308 154.9553209 23.26865101 150.8004756 C23.26353811 146.4250562 23.26829683 142.04964464 23.27142334 137.67422485 C23.27504695 130.33293125 23.27030546 122.99167807 23.26074219 115.65039062 C23.24985262 107.19393312 23.25339337 98.73757204 23.264395 90.28111684 C23.27350413 82.983848 23.27473574 75.68660798 23.26951766 68.38933527 C23.26641886 64.04692864 23.2659307 59.70456717 23.27259064 55.36216354 C23.27841685 51.27933986 23.27427195 47.19663921 23.26280212 43.11382866 C23.26018385 41.62605047 23.26087138 40.13826172 23.26532745 38.6504879 C23.72433355 23.93378177 23.72433355 23.93378177 20 10 C16.6165288 7.76563222 13.4849289 7.6827949 9.5 7.5 C5.46207118 7.31477391 2.48809027 7.12021173 -1 5 C-0.67 3.35 -0.34 1.7 0 0 Z M51 12 C51 44.67 51 77.34 51 111 C84.39070539 112.16905646 84.39070539 112.16905646 112.76953125 97.41015625 C114.21915654 96.06075995 114.21915654 96.06075995 114 94 C114.66 94 115.32 94 116 94 C120.17515179 87.09393132 123.0273637 81.03372318 124 73 C124.16435547 71.67742187 124.16435547 71.67742187 124.33203125 70.328125 C124.99721651 64.3325885 125.2907973 58.92844762 124 53 C123.88140625 52.16082031 123.7628125 51.32164063 123.640625 50.45703125 C122.19403249 40.66359994 118.18264077 32.68652636 112 25 C111.34 25 110.68 25 110 25 C110 24.34 110 23.68 110 23 C109.34 23 108.68 23 108 23 C107.73703125 22.3915625 107.4740625 21.783125 107.203125 21.15625 C104.0355568 15.47930959 97.18910996 13.55818768 91.3125 11.75 C76.99620286 7.92821131 65.70094522 9.24357277 51 12 Z " fill="#D11D2E" transform="translate(5,5)"/>
<path d="M0 0 C0.96634369 -0.00262848 0.96634369 -0.00262848 1.95220947 -0.00531006 C4.10040932 -0.00973865 6.2485277 -0.0067813 8.39672852 -0.00341797 C9.89917517 -0.00409211 11.40162171 -0.00506306 12.90406799 -0.00631714 C16.07098416 -0.00779658 19.23787225 -0.00563683 22.40478516 -0.00097656 C26.41117968 0.00463885 30.41750666 0.00139839 34.4238987 -0.0044117 C97.4856407 -0.08244607 97.4856407 -0.08244607 114.83813477 16.12939453 C121.27377519 25.41129859 124.44260973 37.87686057 123.83813477 49.12939453 C122.5826877 54.47172248 120.28251373 59.2406366 117.83813477 64.12939453 C117.83813477 65.11939453 117.83813477 66.10939453 117.83813477 67.12939453 C117.17813477 67.12939453 116.51813477 67.12939453 115.83813477 67.12939453 C115.34313477 68.61439453 115.34313477 68.61439453 114.83813477 70.12939453 C114.17813477 70.12939453 113.51813477 70.12939453 112.83813477 70.12939453 C112.61125977 70.68626953 112.38438477 71.24314453 112.15063477 71.81689453 C110.4626344 74.79099041 108.3713696 76.84948318 105.83813477 79.12939453 C105.17813477 79.12939453 104.51813477 79.12939453 103.83813477 79.12939453 C103.83813477 79.78939453 103.83813477 80.44939453 103.83813477 81.12939453 C101.72094727 82.63720703 101.72094727 82.63720703 98.96313477 84.25439453 C98.05821289 84.79322266 97.15329102 85.33205078 96.22094727 85.88720703 C93.83813477 87.12939453 93.83813477 87.12939453 91.83813477 87.12939453 C91.83813477 87.78939453 91.83813477 88.44939453 91.83813477 89.12939453 C90.35313477 89.62439453 90.35313477 89.62439453 88.83813477 90.12939453 C89.45019252 94.18508737 90.7694189 97.28891283 92.67407227 100.91064453 C93.24383789 101.99990234 93.81360352 103.08916016 94.40063477 104.21142578 C94.99875977 105.33935547 95.59688477 106.46728516 96.21313477 107.62939453 C97.0987207 109.32128906 97.0987207 109.32128906 98.00219727 111.04736328 C100.50774393 115.81580231 103.04195808 120.52442774 105.83813477 125.12939453 C106.57461017 126.40086728 107.3078584 127.6742166 108.03735352 128.94970703 C119.95150414 151.01734232 119.95150414 151.01734232 138.83813477 166.12939453 C141.56649397 166.88928133 141.56649397 166.88928133 144.21313477 167.31689453 C145.08711914 167.47544922 145.96110352 167.63400391 146.86157227 167.79736328 C147.51383789 167.90693359 148.16610352 168.01650391 148.83813477 168.12939453 C148.83813477 170.10939453 148.83813477 172.08939453 148.83813477 174.12939453 C144.50559073 174.35699703 140.17219674 174.55800037 135.83813477 174.75439453 C134.61739258 174.81884766 133.39665039 174.88330078 132.13891602 174.94970703 C122.85838742 175.35102719 116.10895963 174.67834821 107.83813477 170.12939453 C107.83813477 169.46939453 107.83813477 168.80939453 107.83813477 168.12939453 C106.18813477 167.46939453 104.53813477 166.80939453 102.83813477 166.12939453 C102.83813477 165.46939453 102.83813477 164.80939453 102.83813477 164.12939453 C101.63157227 163.72720703 101.63157227 163.72720703 100.40063477 163.31689453 C99.55500977 162.92501953 98.70938477 162.53314453 97.83813477 162.12939453 C97.50813477 161.13939453 97.17813477 160.14939453 96.83813477 159.12939453 C96.17813477 158.79939453 95.51813477 158.46939453 94.83813477 158.12939453 C91.88992286 153.68973425 89.55152102 148.85002789 87.08813477 144.12939453 C86.19010352 142.41694184 85.29166486 140.70470274 84.39282227 138.99267578 C83.73685059 137.74284912 83.73685059 137.74284912 83.06762695 136.46777344 C79.01260803 128.75550751 74.86235369 121.09745332 70.58813477 113.50439453 C69.62133789 111.78349609 69.62133789 111.78349609 68.63500977 110.02783203 C67.15663595 107.64315079 65.8178758 106.04803244 63.83813477 104.12939453 C63.83813477 103.46939453 63.83813477 102.80939453 63.83813477 102.12939453 C57.54571008 100.78195224 51.36289401 99.95561813 44.93579102 99.56298828 C44.24940552 99.52008667 43.56302002 99.47718506 42.85583496 99.4329834 C41.18344736 99.32886872 39.51081392 99.22871529 37.83813477 99.12939453 C37.95706309 105.70908791 38.08184229 112.28865281 38.21044922 118.86816406 C38.25342327 121.10056115 38.29511967 123.33298326 38.33544922 125.56542969 C37.7617431 146.25220782 37.7617431 146.25220782 41.83813477 166.12939453 C47.11813477 166.78939453 52.39813477 167.44939453 57.83813477 168.12939453 C57.83813477 170.10939453 57.83813477 172.08939453 57.83813477 174.12939453 C36.38813477 174.12939453 14.93813477 174.12939453 -7.16186523 174.12939453 C-7.16186523 172.14939453 -7.16186523 170.16939453 -7.16186523 168.12939453 C-6.19764648 168.03142578 -5.23342773 167.93345703 -4.23999023 167.83251953 C-2.34506836 167.60822266 -2.34506836 167.60822266 -0.41186523 167.37939453 C1.46758789 167.17056641 1.46758789 167.17056641 3.38500977 166.95751953 C7.34889359 166.00690486 8.66263017 165.57218336 10.83813477 162.12939453 C12.28595969 154.46102865 11.98629114 146.46475102 11.98339844 138.69677734 C11.98675705 137.38822281 11.99011566 136.07966827 11.99357605 134.73146057 C12.00233965 131.17184129 12.00475072 127.6122461 12.00539184 124.05261707 C12.00610594 121.82496965 12.00824688 119.59732823 12.01088905 117.36968231 C12.02011245 109.58857335 12.02422714 101.80748143 12.0234375 94.02636719 C12.02283536 86.78604437 12.03342144 79.54579572 12.04918116 72.30549169 C12.06226247 66.07254794 12.06762125 59.83962846 12.06698209 53.60667109 C12.06672757 49.89094468 12.06955449 46.1752845 12.08016014 42.45957184 C12.0916532 38.32114068 12.08709074 34.1828763 12.08105469 30.04443359 C12.08948395 28.2068322 12.08948395 28.2068322 12.0980835 26.33210754 C12.09388901 25.20240036 12.08969452 24.07269318 12.08537292 22.90875244 C12.08619008 21.44322622 12.08619008 21.44322622 12.08702374 19.94809341 C11.80140223 16.71339392 11.1057057 14.11843694 9.83813477 11.12939453 C6.98836607 8.82893192 6.98836607 8.82893192 3.58813477 9.12939453 C-0.50540361 9.12939453 -3.30473322 8.38886621 -7.16186523 7.12939453 C-7.2044088 5.12984707 -7.20267306 3.12897817 -7.16186523 1.12939453 C-5.33562815 -0.69684256 -2.4515337 0.00166808 0 0 Z M40.83813477 12.12939453 C39.84813477 12.12939453 38.85813477 12.12939453 37.83813477 12.12939453 C37.83813477 38.19939453 37.83813477 64.26939453 37.83813477 91.12939453 C63.18131503 91.53179096 63.18131503 91.53179096 84.27563477 79.44189453 C90.58148296 72.55801026 93.61320482 64.3655806 93.83813477 55.12939453 C93.90000977 53.98341797 93.96188477 52.83744141 94.02563477 51.65673828 C94.40215187 40.0906035 92.54969883 30.05857398 84.83813477 21.12939453 C84.17813477 21.12939453 83.51813477 21.12939453 82.83813477 21.12939453 C82.83813477 20.46939453 82.83813477 19.80939453 82.83813477 19.12939453 C70.79750468 9.56615072 55.25773931 7.93460048 40.83813477 12.12939453 Z " fill="#D11C2E" transform="translate(867.161865234375,41.87060546875)"/>
<path d="M0 0 C21.45 0 42.9 0 65 0 C65 2.31 65 4.62 65 7 C61.39644819 7.78395368 57.86127988 8.25266314 54.1875 8.5625 C53.21167969 8.64628906 52.23585937 8.73007812 51.23046875 8.81640625 C50.49441406 8.87699219 49.75835937 8.93757813 49 9 C43.69382465 20.53901557 45.85147536 36.77184061 45.8671875 49.25 C45.86651204 51.16235364 45.86554 53.0747072 45.86428833 54.98706055 C45.86282561 58.96387563 45.86492151 62.94066804 45.86962891 66.91748047 C45.87535663 72.00236796 45.87201901 77.087203 45.86605644 82.17208862 C45.86243868 86.10809727 45.86359448 90.04409352 45.86618423 93.98010254 C45.86684852 95.8555095 45.86604259 97.73091762 45.86370468 99.60632324 C45.8611547 102.22325625 45.86505034 104.84010453 45.87060547 107.45703125 C45.86858124 108.2218129 45.86655701 108.98659454 45.86447144 109.77455139 C45.88208585 114.27198335 46.28266129 118.54760643 47 123 C47.16132589 124.91542487 47.30770283 126.83218062 47.4375 128.75 C47.90317755 134.52003588 48.39771296 140.41817653 50 146 C50.66 146.33 51.32 146.66 52 147 C52.625 149.5625 52.625 149.5625 53 152 C53.66 152 54.32 152 55 152 C55.515625 152.86625 56.03125 153.7325 56.5625 154.625 C61.33226452 162.0700568 69.730198 165.1375572 78 167 C95.78008257 170.69020582 112.7996477 166.33531863 128 157 C134.44164521 152.75491637 134.44164521 152.75491637 137.58590698 146.0927124 C138.23569911 140.86815027 138.13924978 135.62063518 138.12939453 130.36425781 C138.13114685 129.21047638 138.13289917 128.05669495 138.13470459 126.86795044 C138.13909681 123.06299321 138.13619356 119.25808268 138.1328125 115.453125 C138.13348648 112.79905134 138.13445594 110.14497907 138.13571167 107.49090576 C138.13752817 101.92947894 138.13514174 96.36806542 138.13037109 90.80664062 C138.12494019 84.40208275 138.12668469 77.99755678 138.1321975 71.5929997 C138.13675626 66.07340895 138.1373654 60.55382774 138.13475883 55.03423572 C138.13320982 51.7470125 138.13336389 48.45980731 138.13629532 45.17258453 C138.13885129 41.49947496 138.13493942 37.82642545 138.12939453 34.15332031 C138.13243088 32.5460054 138.13243088 32.5460054 138.13552856 30.90621948 C138.11694712 24.2197526 137.71952906 17.64766862 137 11 C131.79348877 9.38019651 126.64910969 8.38515025 121.2578125 7.5625 C120.51273437 7.376875 119.76765625 7.19125 119 7 C118 5 118 5 119 0 C140.45 0 161.9 0 184 0 C185 5 185 5 184 7 C182.02 7 180.04 7 178 7 C178 7.66 178 8.32 178 9 C177.113125 8.95875 176.22625 8.9175 175.3125 8.875 C170.86700117 9.034459 170.86700117 9.034459 167 11 C164.29910618 18.53361394 164.7322599 26.33323035 164.77294922 34.22851562 C164.77351404 35.76662183 164.77319538 37.30472858 164.77206421 38.84283447 C164.77149248 42.99930074 164.78321755 47.1556506 164.79721212 51.31208992 C164.80974958 55.66292855 164.81089236 60.01377011 164.81326294 64.36462402 C164.81946887 72.59505402 164.83586764 80.82543062 164.85596192 89.05583715 C164.87834858 98.42947648 164.8893213 107.80311842 164.89935279 117.17677784 C164.92023468 136.45121545 164.95539335 155.72560343 165 175 C161.7 175.99 158.4 176.98 155 178 C152 174 152 174 152 172 C151.34 172 150.68 172 150 172 C150 171.34 150 170.68 150 170 C149.34 170 148.68 170 148 170 C147.04332032 168.84449231 146.13290703 167.65031046 145.25 166.4375 C143.71370673 164.49825994 143.71370673 164.49825994 142 163 C138.94109858 162.75949193 138.94109858 162.75949193 136 164 C134.906875 164.309375 133.81375 164.61875 132.6875 164.9375 C129.86882505 165.70621648 129.86882505 165.70621648 129 168 C127.2578125 168.8515625 127.2578125 168.8515625 125.125 169.625 C124.42632812 169.88539063 123.72765625 170.14578125 123.0078125 170.4140625 C121 171 121 171 118 171 C117.67 171.66 117.34 172.32 117 173 C113.4460204 174.3658151 109.70075869 175.12721992 106 176 C104.31197266 176.42539062 104.31197266 176.42539062 102.58984375 176.859375 C94.00950622 178.77213163 85.72862978 179.28504767 76.9375 179.3125 C75.86677246 179.31789795 74.79604492 179.3232959 73.69287109 179.32885742 C68.06092638 179.27789962 63.31692083 178.86754231 58 177 C54.01493064 175.83196243 50.08709216 174.74310766 46 174 C46 173.34 46 172.68 46 172 C45.113125 171.731875 44.22625 171.46375 43.3125 171.1875 C40.2090334 170.0749365 37.68889315 168.89804222 35 167 C35 166.34 35 165.68 35 165 C34.01 164.67 33.02 164.34 32 164 C32 163.34 32 162.68 32 162 C31.34 161.67 30.68 161.34 30 161 C26.34396788 154.85165952 23.63355578 149.12750257 23 142 C22.34 141.67 21.68 141.34 21 141 C20.52664892 138.67228385 20.41400459 136.36745387 20.24012756 133.9989624 C20.09640043 132.20394864 19.93542093 130.41000158 19.73948669 128.61993408 C18.73135658 118.9138024 18.90146063 109.20082219 18.95540047 99.45616913 C18.9729661 96.17652436 18.98314398 92.89692942 18.99131775 89.61724854 C19.01562595 80.30109969 19.05141813 70.98501886 19.09594727 61.66894531 C19.12277503 55.94928677 19.1397851 50.2296661 19.15081596 44.50995636 C19.15700498 42.33950644 19.16698411 40.16906376 19.18089485 37.9986496 C19.2001819 34.96487123 19.20701639 31.9312925 19.21118164 28.89746094 C19.21994324 28.01000183 19.22870483 27.12254272 19.23773193 26.20819092 C19.22931518 20.8188708 18.74717746 16.12400049 17 11 C16.01 10.67 15.02 10.34 14 10 C14 9.34 14 8.68 14 8 C12.2365625 8.3403125 12.2365625 8.3403125 10.4375 8.6875 C5.7883386 9.30075837 3.10683488 8.1389765 -1 6 C-0.67 4.02 -0.34 2.04 0 0 Z " fill="#D01D2F" transform="translate(182,42)"/>
<path d="M0 0 C0.75539063 0.25652344 1.51078125 0.51304688 2.2890625 0.77734375 C4.98479499 2.70374619 5.25301533 4.83367692 6 8 C6.2597415 10.40997269 6.44347568 12.82899458 6.5625 15.25 C6.96954924 22.53403899 7.37813063 29.76500904 8.75 36.9375 C9 40 9 40 7.9375 41.875 C5.37585287 43.36240801 2.90805938 43.56596129 0 44 C-0.25394531 43.09378906 -0.50789062 42.18757813 -0.76953125 41.25390625 C-2.69332276 34.44498124 -4.69279558 27.69089282 -7 21 C-7.66 21 -8.32 21 -9 21 C-9.474375 20.175 -9.94875 19.35 -10.4375 18.5 C-15.61702359 10.46412149 -24.63998022 6.09908949 -33.5859375 3.67578125 C-39.36268334 2.53232927 -45.12100159 2.14391673 -51 2 C-52.02222656 1.97421875 -53.04445313 1.9484375 -54.09765625 1.921875 C-56.88002496 1.99677052 -59.28972534 2.39913722 -62 3 C-62.92296875 3.13019531 -63.8459375 3.26039062 -64.796875 3.39453125 C-71.47663049 4.33994638 -77.01412954 5.9063125 -83 9 C-88.89285714 12 -88.89285714 12 -91 12 C-91 12.99 -91 13.98 -91 15 C-91.763125 15.226875 -92.52625 15.45375 -93.3125 15.6875 C-96.5791632 17.28284714 -97.19177402 18.93387769 -99 22 C-100.32594105 22.36162029 -101.65938457 22.69728039 -103 23 C-104.21690533 24.76529595 -104.21690533 24.76529595 -105 27 C-105.37125 27.9075 -105.7425 28.815 -106.125 29.75 C-106.558125 30.86375 -106.558125 30.86375 -107 32 C-107.66 32 -108.32 32 -109 32 C-112.1696329 39.76062585 -115.23672799 47.60400792 -116 56 C-116.66 56 -117.32 56 -118 56 C-117.98839844 56.92941406 -117.97679687 57.85882813 -117.96484375 58.81640625 C-117.91968417 65.00326886 -118.02088859 70.8805537 -119 77 C-119.18809331 80.86314713 -119.23756597 84.28730208 -118 88 C-117.84637963 89.9771511 -117.72582776 91.95695476 -117.625 93.9375 C-116.94357799 103.49870257 -114.45666612 112.11142998 -111 121 C-111 121.66 -111 122.32 -111 123 C-110.34 123.33 -109.68 123.66 -109 124 C-108.26924352 126.3140622 -107.59861742 128.64828869 -107 131 C-106.34 131 -105.68 131 -105 131 C-101.125 137.625 -101.125 137.625 -100 141 C-99.34 141 -98.68 141 -98 141 C-96.75457235 142.50762295 -95.51151285 144.01744135 -94.29296875 145.546875 C-92.72308915 147.31121098 -91.13711647 148.03485062 -89 149 C-88.42507813 149.61488281 -87.85015625 150.22976562 -87.2578125 150.86328125 C-75.12073096 162.34941205 -54.97120909 163.53110222 -39.17724609 163.11083984 C-34.22422954 162.85869031 -29.33048426 162.14732636 -24.42578125 161.4375 C-21.55884663 161.07136924 -18.88229911 160.91182259 -16 161 C-16.16443604 160.01265869 -16.32887207 159.02531738 -16.49829102 158.00805664 C-17.07435744 153.95832173 -17.09304766 149.95413898 -17.02734375 145.87109375 C-17.01470428 144.32617406 -17.00234282 142.78125207 -16.99023438 141.23632812 C-16.96540568 138.83138657 -16.93734865 136.42656828 -16.90405273 134.02172852 C-16.87373165 131.67984262 -16.85604841 129.33811401 -16.83984375 126.99609375 C-16.82638412 126.28343857 -16.8129245 125.57078339 -16.79905701 124.83653259 C-16.77183661 119.37691703 -17.46149563 115.01597124 -20.8125 110.625 C-23.44815994 108.66708119 -24.79491796 108.74012848 -28 109 C-28.33 108.67 -28.66 108.34 -29 108 C-31.52596259 107.76346477 -34.03107207 107.57826308 -36.5625 107.4375 C-37.27341797 107.39431641 -37.98433594 107.35113281 -38.71679688 107.30664062 C-40.47761912 107.20028223 -42.2387832 107.09961154 -44 107 C-44 104.69 -44 102.38 -44 100 C-21.56 100 0.88 100 24 100 C24 101.98 24 103.96 24 106 C23.01 106 22.02 106 21 106 C20.67 106.66 20.34 107.32 20 108 C17.03 108 14.06 108 11 108 C11.00444122 108.67207489 11.00888245 109.34414978 11.01345825 110.03659058 C11.05759634 117.01151408 11.08782667 123.98639813 11.10986328 130.96142578 C11.11994064 133.56691091 11.1336027 136.17238469 11.15087891 138.77783203 C11.17505102 142.51597899 11.1864656 146.25397685 11.1953125 149.9921875 C11.20563507 151.16304901 11.21595764 152.33391052 11.22659302 153.54025269 C11.22674408 154.62122223 11.22689514 155.70219177 11.22705078 156.81591797 C11.231492 157.77078094 11.23593323 158.72564392 11.24050903 159.70944214 C11 162 11 162 9 164 C-15.96232661 173.20252936 -45.56236603 177.33403836 -72 173 C-72.33 172.34 -72.66 171.68 -73 171 C-75.58075357 170.60467368 -75.58075357 170.60467368 -78.625 170.5 C-87.72650242 169.85754101 -95.820001 167.02548847 -104 163 C-104.33 162.34 -104.66 161.68 -105 161 C-106.98636298 160.29373761 -108.98848259 159.63106429 -111 159 C-112.34721283 158.36184656 -113.68747118 157.70674629 -115 157 C-115 156.34 -115 155.68 -115 155 C-116.65 154.34 -118.3 153.68 -120 153 C-120 152.34 -120 151.68 -120 151 C-120.86238281 150.64421875 -120.86238281 150.64421875 -121.7421875 150.28125 C-124.48037655 148.72739877 -126.08417178 146.89001936 -128.125 144.5 C-130.98168952 141.17517551 -130.98168952 141.17517551 -134 138 C-136.56783576 135.02131052 -137.27705619 132.82127441 -138 129 C-138.66 128.67 -139.32 128.34 -140 128 C-148.72359637 110.67149565 -149.81612903 89.02034034 -149 70 C-148.34 70 -147.68 70 -147 70 C-147.20625 69.13375 -147.4125 68.2675 -147.625 67.375 C-148.04504513 63.59459379 -147.30242873 61.52421891 -146 58 C-146 56.68 -146 55.36 -146 54 C-145.34 54 -144.68 54 -144 54 C-143.92523437 53.40574219 -143.85046875 52.81148437 -143.7734375 52.19921875 C-142.75765566 45.79580973 -140.62151608 40.92409212 -137.33984375 35.34765625 C-135.88122304 32.96965048 -135.88122304 32.96965048 -135 30 C-134.34 30 -133.68 30 -133 30 C-132.64035156 29.16855469 -132.64035156 29.16855469 -132.2734375 28.3203125 C-130.71155828 25.47443442 -128.79394296 23.28893984 -126.625 20.875 C-125.85414063 20.00617188 -125.08328125 19.13734375 -124.2890625 18.2421875 C-122.22116203 16.21663312 -120.65278801 15.07807367 -118 14 C-118 13.34 -118 12.68 -118 12 C-107.26262117 3.59558363 -94.03829067 -1.52516531 -81 -5 C-79.82566406 -5.33773437 -78.65132812 -5.67546875 -77.44140625 -6.0234375 C-52.70521111 -11.92977982 -23.51505121 -9.15817547 0 0 Z " fill="#D01D2F" transform="translate(672,47)"/>
<path d="M0 0 C37.62 0 75.24 0 114 0 C116.61260983 13.06304913 117.84776118 26.7660348 116 40 C113.69 40.66 111.38 41.32 109 42 C107.53453574 36.77317746 106.08501968 31.58368372 105.0625 26.25 C103.89465588 21.06885031 102.58373495 16.63539778 97.9140625 13.6796875 C93.88298245 11.76458967 90.52313553 10.57595604 86 11 C85.505 10.505 85.505 10.505 85 10 C82.04294679 9.91131701 79.10934944 9.88479704 76.15234375 9.90234375 C75.2659169 9.9037587 74.37949005 9.90517365 73.46620178 9.90663147 C70.62326746 9.91224785 67.78041069 9.92480309 64.9375 9.9375 C63.01497509 9.94251289 61.09244896 9.94707616 59.16992188 9.95117188 C54.44658451 9.96222259 49.72330542 9.97949817 45 10 C45.0707373 11.00426025 45.14147461 12.00852051 45.21435547 13.04321289 C46.02406042 25.4077277 46.15438469 37.73992774 46.13037109 50.12817383 C46.12492359 53.48458192 46.13039646 56.84086113 46.13671875 60.19726562 C46.13605935 62.33854196 46.13478105 64.47981822 46.1328125 66.62109375 C46.13483673 67.6209581 46.13686096 68.62082245 46.13894653 69.65098572 C46.13421829 71.03502342 46.13421829 71.03502342 46.12939453 72.44702148 C46.12859894 73.2565477 46.12780334 74.06607391 46.12698364 74.90013123 C46 77 46 77 45 80 C50.12318872 79.90589125 55.2459365 79.79967494 60.36865234 79.68261719 C62.10849276 79.64452085 63.84840676 79.60963553 65.58837891 79.578125 C68.10085205 79.53205099 70.612827 79.4741305 73.125 79.4140625 C73.89303955 79.40251129 74.6610791 79.39096008 75.45239258 79.37905884 C80.57564108 79.24152524 85.09549819 78.5316284 90 77 C92.96164206 73.56978171 93.55636285 70.10546003 94.1875 65.6875 C94.42533203 64.08455078 94.42533203 64.08455078 94.66796875 62.44921875 C94.77753906 61.64097656 94.88710938 60.83273438 95 60 C97.64 60 100.28 60 103 60 C103.92985374 65.5080214 104.14632886 70.81833125 104.1328125 76.3984375 C104.13376923 77.27400299 104.13472595 78.14956848 104.13571167 79.05166626 C104.1363885 80.88877434 104.13456908 82.72588487 104.13037109 84.56298828 C104.12497689 87.3870979 104.13035264 90.21105128 104.13671875 93.03515625 C104.13605864 94.82291702 104.13477887 96.61067769 104.1328125 98.3984375 C104.13483673 99.24626801 104.13686096 100.09409851 104.13894653 100.96762085 C104.11497642 106.88502358 104.11497642 106.88502358 103 108 C100.32941149 108.14115161 97.67567762 108.04247107 95 108 C94.86722656 107.18015625 94.73445312 106.3603125 94.59765625 105.515625 C94.42105469 104.43796875 94.24445313 103.3603125 94.0625 102.25 C93.88847656 101.18265625 93.71445312 100.1153125 93.53515625 99.015625 C93.11295829 96.63652407 92.62797116 94.33084789 92 92 C91.34 92 90.68 92 90 92 C90 91.34 90 90.68 90 90 C87.11914062 90.04882812 87.11914062 90.04882812 84.23828125 90.09765625 C82 90 82 90 79.828125 89.51367188 C76.36898601 88.88538903 73.02639352 88.78161257 69.51171875 88.68359375 C68.4569207 88.6524221 68.4569207 88.6524221 67.3808136 88.62062073 C65.14980183 88.55559885 62.91867931 88.49646224 60.6875 88.4375 C59.16860866 88.39426964 57.64972823 88.35065395 56.13085938 88.30664062 C52.4206888 88.19996666 48.71039579 88.09856779 45 88 C45.24349686 89.52812065 45.24349686 89.52812065 45.49191284 91.08711243 C45.95486252 94.65238667 46.1268196 98.01582488 46.12939453 101.60620117 C46.13254669 102.87408981 46.13569885 104.14197845 46.13894653 105.44828796 C46.13715699 106.81318192 46.1351061 108.17807555 46.1328125 109.54296875 C46.13348703 110.95827755 46.1344583 112.37358624 46.13571167 113.78889465 C46.13718018 116.74330762 46.13506046 119.6976902 46.13037109 122.65209961 C46.12465857 126.43491358 46.12796778 130.21765684 46.13394356 134.00046825 C46.13755869 136.91812167 46.13640647 139.83575833 46.13381577 142.75341225 C46.13314995 144.14844076 46.13396284 145.54347082 46.13629532 146.93849754 C46.13883915 148.88632553 46.1342735 150.83415888 46.12939453 152.78198242 C46.12859894 153.88893967 46.12780334 154.99589691 46.12698364 156.13639832 C46.01755053 158.60421887 45.71772199 160.6489362 45 163 C64.20421159 165.95855804 91.04155039 169.9337238 108 158 C110.34325664 155.44860147 110.34325664 155.44860147 112 153 C112.66 152.67 113.32 152.34 114 152 C117.66495674 144.79327833 119.72425425 136.72300952 122 129 C124.64 129.33 127.28 129.66 130 130 C130.41037019 135.8819727 129.18137365 141.03240801 127.7890625 146.73828125 C127.12433741 149.48603102 126.53421341 152.22480662 126 155 C125.20879911 159.03578941 124.34121889 163.0503374 123.4375 167.0625 C123.18871094 168.16722656 122.93992187 169.27195313 122.68359375 170.41015625 C122 173 122 173 121 174 C119.43112365 174.09591199 117.85792208 174.12187996 116.28611755 174.12025452 C114.7568866 174.12231651 114.7568866 174.12231651 113.19676208 174.12442017 C112.068918 174.12082489 110.94107391 174.11722961 109.77905273 174.11352539 C108.59872467 174.11367142 107.41839661 174.11381744 106.20230103 174.1139679 C102.95657892 174.11338895 99.71089945 174.10835986 96.46518588 174.10139394 C93.07656968 174.09515962 89.68795272 174.09455654 86.29933167 174.09336853 C79.87844196 174.09025544 73.45756919 174.08204236 67.03668696 174.07201904 C59.72846175 174.0608572 52.42023576 174.05534727 45.11200416 174.05032361 C30.07465998 174.03985973 15.03733168 174.02226073 0 174 C0 172.02 0 170.04 0 168 C0.96421875 167.90203125 1.9284375 167.8040625 2.921875 167.703125 C4.81679688 167.47882813 4.81679688 167.47882813 6.75 167.25 C8.62945313 167.04117188 8.62945313 167.04117188 10.546875 166.828125 C14.44619196 165.89299469 15.78962157 165.32629763 18 162 C19.22853163 155.06172289 19.14133709 148.14642829 19.12939453 141.11743164 C19.13114685 139.84324875 19.13289917 138.56906586 19.13470459 137.25627136 C19.13923992 133.78103524 19.13750536 130.305829 19.1343255 126.83059239 C19.13178113 123.18063483 19.13414526 119.53067971 19.13571167 115.88072205 C19.13752755 109.75193831 19.13514257 103.62316666 19.13037109 97.49438477 C19.12493203 90.42686782 19.1266909 83.35937974 19.1321975 76.2918635 C19.13674812 70.20583445 19.13736958 64.11981405 19.13475883 58.03378385 C19.13320645 54.40682117 19.13297359 50.77987202 19.13629532 47.15291023 C19.13974324 43.10591065 19.13495252 39.05896013 19.12939453 35.01196289 C19.13141876 33.82259125 19.13344299 32.6332196 19.13552856 31.4078064 C19.57189751 20.19292785 19.57189751 20.19292785 16 10 C13.97432418 9.45468285 13.97432418 9.45468285 11.6875 9.375 C10.48480469 9.27832031 10.48480469 9.27832031 9.2578125 9.1796875 C8.51273438 9.12039062 7.76765625 9.06109375 7 9 C4.35874903 8.55042537 2.3823811 8.19119055 0 7 C0 4.69 0 2.38 0 0 Z " fill="#D01D2F" transform="translate(711,42)"/>
<path d="M0 0 C1.1444458 0.00161133 2.2888916 0.00322266 3.46801758 0.00488281 C15.26899138 0.17466902 26.43691262 1.66261564 36.4375 8.375 C37.5234375 10.35546875 37.5234375 10.35546875 37.8125 12.5625 C37.93109375 13.42617188 38.0496875 14.28984375 38.171875 15.1796875 C39.45681355 30.63674241 39.45681355 30.63674241 39.42578125 38.25 C39.35137257 40.40842513 39.35137257 40.40842513 40 42.5625 C40.4375 44.375 40.4375 44.375 39.4375 46.375 C37.1275 46.375 34.8175 46.375 32.4375 46.375 C30.4051536 41.53349923 28.98926167 36.57057891 27.53515625 31.53125 C26.4797457 28.49647519 25.1185259 26.09529263 23.4375 23.375 C23.4375 22.715 23.4375 22.055 23.4375 21.375 C22.7775 21.375 22.1175 21.375 21.4375 21.375 C19.74933067 19.73011706 18.08396685 18.06162458 16.4375 16.375 C11.59951023 13.14967349 7.30015599 11.06643916 1.4375 11.375 C0.674375 11.189375 -0.08875 11.00375 -0.875 10.8125 C-6.46640183 9.90227179 -11.41683002 11.16971286 -16.5625 13.375 C-17.5525 13.375 -18.5425 13.375 -19.5625 13.375 C-19.5625 14.035 -19.5625 14.695 -19.5625 15.375 C-20.284375 15.74625 -21.00625 16.1175 -21.75 16.5 C-26.6840836 19.78938907 -29.31130981 24.77738198 -30.875 30.4375 C-32.38827032 39.10441184 -31.270206 46.424903 -26.5 53.875 C-24.8057046 56.43382201 -24.8057046 56.43382201 -22.5625 57.375 C-22.5625 58.035 -22.5625 58.695 -22.5625 59.375 C-21.985 59.66375 -21.4075 59.9525 -20.8125 60.25 C-18.72916667 61.29166667 -16.64583333 62.33333333 -14.5625 63.375 C-14.5625 64.035 -14.5625 64.695 -14.5625 65.375 C-13.51328369 65.76655273 -13.51328369 65.76655273 -12.44287109 66.16601562 C-9.30627749 67.48254483 -6.43572102 69.04075973 -3.4765625 70.71875 C-2.90216431 71.04412247 -2.32776611 71.36949493 -1.73596191 71.70472717 C0.11623785 72.756811 1.96487502 73.81490446 3.8125 74.875 C4.75491547 75.4150618 4.75491547 75.4150618 5.71636963 75.96603394 C33.10781339 91.69428694 33.10781339 91.69428694 39.4375 100.375 C40.0975 101.035 40.7575 101.695 41.4375 102.375 C48.63556491 114.68589653 52.73845705 127.81766765 49.640625 142.03125 C48.06098916 147.8151474 46.23864836 153.06164696 43.4375 158.375 C42.7775 158.375 42.1175 158.375 41.4375 158.375 C41.169375 159.179375 40.90125 159.98375 40.625 160.8125 C40.233125 161.658125 39.84125 162.50375 39.4375 163.375 C38.4475 163.705 37.4575 164.035 36.4375 164.375 C36.1075 165.365 35.7775 166.355 35.4375 167.375 C26.23589059 177.64054549 6.08337601 181.78719089 -6.95019531 182.50683594 C-14.81702863 182.75314962 -22.81910093 182.94787794 -30.5625 181.375 C-31.0575 180.385 -31.0575 180.385 -31.5625 179.375 C-32.9546875 179.2203125 -32.9546875 179.2203125 -34.375 179.0625 C-41.67506017 178.21436023 -49.8440989 175.13583855 -54.5625 169.375 C-55.25 165.875 -55.25 165.875 -55.5625 162.375 C-55.70937256 161.78855713 -55.85624512 161.20211426 -56.00756836 160.59790039 C-57.28562993 155.47834445 -57.93763099 150.20188002 -58.77416992 144.9934082 C-59.12442585 142.81606918 -59.47904059 140.63946975 -59.83398438 138.46289062 C-60.05755605 137.07816766 -60.28087208 135.69340339 -60.50390625 134.30859375 C-60.70701416 133.05103271 -60.91012207 131.79347168 -61.11938477 130.49780273 C-61.5625 127.375 -61.5625 127.375 -61.5625 124.375 C-57.94276598 123.05873308 -55.46682869 122.375 -51.5625 122.375 C-51.33175781 123.40238281 -51.10101562 124.42976563 -50.86328125 125.48828125 C-47.24289949 141.0853691 -41.8820507 156.51828003 -27.76171875 165.5234375 C-17.22419209 171.32671305 -5.36598609 172.95134956 6.25 170.125 C10.41207497 168.89636487 13.23171226 167.37396272 16.4375 164.375 C17.0975 164.375 17.7575 164.375 18.4375 164.375 C24.23723069 152.82732193 28.1251532 142.53149592 25.4375 129.375 C24.7775 129.045 24.1175 128.715 23.4375 128.375 C22.61914987 126.98524048 21.85577248 125.5627413 21.125 124.125 C18.52607537 119.30934555 15.56398153 115.92675679 11.125 112.6875 C10.2896875 112.0378125 10.2896875 112.0378125 9.4375 111.375 C9.4375 110.715 9.4375 110.055 9.4375 109.375 C8.80199219 109.15070313 8.16648437 108.92640625 7.51171875 108.6953125 C2.3785492 106.4907238 -2.38604087 103.60030238 -7.23242188 100.83203125 C-8.01552734 100.38988281 -8.79863281 99.94773437 -9.60546875 99.4921875 C-10.67317505 98.88286377 -10.67317505 98.88286377 -11.76245117 98.26123047 C-13.52715595 97.22776496 -13.52715595 97.22776496 -15.5625 97.375 C-15.5625 96.715 -15.5625 96.055 -15.5625 95.375 C-16.635 95.08625 -17.7075 94.7975 -18.8125 94.5 C-21.65650364 93.64679891 -23.99758983 92.8113497 -26.5625 91.375 C-26.5625 90.715 -26.5625 90.055 -26.5625 89.375 C-27.614375 89.00375 -27.614375 89.00375 -28.6875 88.625 C-31.95764548 87.20319762 -34.703622 85.50253712 -37.5625 83.375 C-37.5625 82.715 -37.5625 82.055 -37.5625 81.375 C-39.2125 80.715 -40.8625 80.055 -42.5625 79.375 C-42.5625 78.715 -42.5625 78.055 -42.5625 77.375 C-44.0475 76.385 -44.0475 76.385 -45.5625 75.375 C-47.16796875 72.87890625 -47.16796875 72.87890625 -48.75 69.9375 C-49.27980469 68.96941406 -49.80960938 68.00132813 -50.35546875 67.00390625 C-51.5625 64.375 -51.5625 64.375 -51.5625 61.375 C-52.2225 61.045 -52.8825 60.715 -53.5625 60.375 C-57.4874825 48.8181071 -56.27199341 36.46121625 -51.5625 25.375 C-50.9025 25.045 -50.2425 24.715 -49.5625 24.375 C-49.294375 23.653125 -49.02625 22.93125 -48.75 22.1875 C-44.79216007 12.8136686 -35.45422542 7.84643001 -26.4375 4.0625 C-17.77155034 0.65471552 -9.24481766 -0.01352669 0 0 Z " fill="#D01D2F" transform="translate(1079.5625,38.625)"/>
<path d="M0 0 C48.51 0 97.02 0 147 0 C148.28906156 10.31249244 149.34822227 20.17849701 149.625 30.5 C149.66367187 31.71558594 149.70234375 32.93117187 149.7421875 34.18359375 C149.83474399 37.12226236 149.9206534 40.06095035 150 43 C146.23375329 44.25541557 144.62811066 43.37061958 141 42 C140.89042969 41.39414063 140.78085937 40.78828125 140.66796875 40.1640625 C139.64598363 34.76332815 138.3541851 29.56104656 136.68359375 24.32421875 C135.97072035 21.90044918 135.46140403 19.48279309 135 17 C134.01 16.67 133.02 16.34 132 16 C131.67 15.34 131.34 14.68 131 14 C120.63354246 8.81677123 108.29852984 9.94866957 96.98046875 9.98046875 C96.01637085 9.98187866 95.05227295 9.98328857 94.05895996 9.98474121 C91.70596675 9.988387 89.35298677 9.9935023 87 10 C86.92985939 28.89784479 86.87698708 47.79566309 86.84456348 66.69361115 C86.82910721 75.46863664 86.80804143 84.24358117 86.77368164 93.01855469 C86.74374129 100.66853055 86.72441599 108.31844776 86.71773452 115.96848059 C86.7138301 120.01757921 86.70468013 124.06651006 86.68280983 128.11555481 C86.66237133 131.93060799 86.65618098 135.74542507 86.66067696 139.5605278 C86.65985504 140.95688029 86.65393324 142.35324109 86.64238358 143.74954605 C86.58430939 151.13589947 86.62615625 157.33035396 90 164 C93.78596147 166.46121119 98.38609531 166.60823314 102.8125 167.125 C103.85180664 167.25455078 103.85180664 167.25455078 104.91210938 167.38671875 C106.60733706 167.59716081 108.30357755 167.79941672 110 168 C110 169.98 110 171.96 110 174 C85.58 174 61.16 174 36 174 C36 172.02 36 170.04 36 168 C37.09699219 167.87882813 38.19398438 167.75765625 39.32421875 167.6328125 C40.77868823 167.46390637 42.23311304 167.29461519 43.6875 167.125 C44.40873047 167.04636719 45.12996094 166.96773437 45.87304688 166.88671875 C49.85726019 166.41370712 53.37883197 165.85173365 57 164 C59.50345691 160.18520851 59.13767637 156.19111377 58.97265625 151.79296875 C59 149 59 149 59.48887634 145.63378906 C60.23701867 139.79354385 60.17703152 133.94620379 60.20532227 128.06640625 C60.21522186 126.78752029 60.22512146 125.50863434 60.23532104 124.19099426 C60.26219155 120.70606145 60.28329692 117.22111535 60.30332303 113.73613739 C60.32529368 110.0859489 60.35262781 106.43580055 60.37937927 102.78564453 C60.42915718 95.88336096 60.47415085 88.98105494 60.51740164 82.07872772 C60.56690194 74.21651293 60.62177234 66.35433844 60.67708123 58.4921627 C60.7906723 42.32814569 60.89756052 26.16409162 61 10 C56.6075182 9.95011596 52.21519176 9.91405419 47.82250977 9.89013672 C46.3319206 9.8801533 44.84135064 9.86656178 43.35083008 9.84912109 C27.70635619 9.34026557 27.70635619 9.34026557 14 16 C9.78246852 20.92045339 8.99674345 25.802068 8 32 C7.67704749 33.83519043 7.34404054 35.66864577 7 37.5 C6.855625 38.3146875 6.71125 39.129375 6.5625 39.96875 C6 42 6 42 4 44 C0.375 43.625 0.375 43.625 -3 43 C-3.09906489 33.29164085 -3.06039357 23.6945261 -2.21875 14.015625 C-1.94752552 10.99177752 -1.94752552 10.99177752 -2.09375 7.921875 C-2 5 -2 5 0 0 Z " fill="#D01D2F" transform="translate(371,42)"/>
<path d="M0 0 C3.96 0 7.92 0 12 0 C12.79276039 2.52049393 13.58423465 5.04138014 14.375 7.5625 C14.59671875 8.26697266 14.8184375 8.97144531 15.046875 9.69726562 C15.26601563 10.39658203 15.48515625 11.09589844 15.7109375 11.81640625 C15.90993652 12.45006104 16.10893555 13.08371582 16.31396484 13.73657227 C18.82711556 22.02818091 21.09075905 30.40010954 23.42333984 38.74414062 C23.89323327 40.42228471 24.36460091 42.10001665 24.83740234 43.77734375 C25.52287097 46.2099272 26.20335099 48.64385782 26.8828125 51.078125 C27.09527618 51.82813782 27.30773987 52.57815063 27.52664185 53.35089111 C28.35278066 56.3267772 29 58.89552333 29 62 C29.66 61.67 30.32 61.34 31 61 C31.90293264 58.18988291 32.6986192 55.41591301 33.4375 52.5625 C33.87950311 50.91257133 34.32220666 49.26283014 34.765625 47.61328125 C35.08370117 46.41759521 35.08370117 46.41759521 35.40820312 45.19775391 C38.24145628 34.67591194 41.88534642 24.43209748 45.52148438 14.16796875 C45.9768457 12.87439453 45.9768457 12.87439453 46.44140625 11.5546875 C46.71670166 10.77593262 46.99199707 9.99717773 47.27563477 9.19482422 C47.95282234 7.14294815 48.48727784 5.09771995 49 3 C49.33 2.01 49.66 1.02 50 0 C53.63 0 57.26 0 61 0 C61.70600563 4.58903656 62.04993005 8.96432013 62 13.609375 C61.97520837 19.42301282 62.2040618 25.19540508 62.5 31 C63.14127618 44.66589235 63.09913564 58.32233256 63 72 C60.69 72 58.38 72 56 72 C53.30141899 65.95854008 53.74764036 59.86030673 53.8046875 53.3828125 C53.8075174 52.17051971 53.81034729 50.95822693 53.81326294 49.709198 C53.82443333 45.84769711 53.84953263 41.98643047 53.875 38.125 C53.88503384 35.50260752 53.89415898 32.8802114 53.90234375 30.2578125 C53.92436242 23.83846211 53.95780902 17.4192478 54 11 C53.6709668 12.2080127 53.34193359 13.41602539 53.00292969 14.66064453 C52.55938724 16.2764063 52.1156943 17.89212676 51.671875 19.5078125 C51.45644043 20.30034424 51.24100586 21.09287598 51.01904297 21.90942383 C49.30751933 28.12244552 47.27114591 34.14117266 45.015625 40.1796875 C44.19184098 42.46727236 43.55027112 44.63974619 43 47 C40.69830082 55.48278806 38.14915701 63.79209076 35 72 C28.375 73.125 28.375 73.125 25 72 C24.33984375 69.96875 24.33984375 69.96875 23.9375 67.5 C23.57483048 65.08992981 23.57483048 65.08992981 23 63 C22.34 62.67 21.68 62.34 21 62 C20.49881543 59.93288252 20.01188518 57.86147277 19.58935547 55.77685547 C18.46618911 50.48485293 16.97792011 45.28242513 15.5625 40.0625 C15.26279297 38.94681641 14.96308594 37.83113281 14.65429688 36.68164062 C13.06563906 30.79912677 11.418277 24.94359226 9.62866211 19.11889648 C9.02685599 17.09051772 8.49682015 15.05634005 8 13 C7.25191156 22.05721358 6.89330612 31.00722733 7.03710938 40.09521484 C7.07457861 43.34423019 7.03594079 45.89217762 6 49 C5.92996068 50.60407557 5.91562194 52.2109514 5.9375 53.81640625 C5.94523437 54.74517578 5.95296875 55.67394531 5.9609375 56.63085938 C5.97382813 57.59830078 5.98671875 58.56574219 6 59.5625 C6.02545339 61.480413 6.04650543 63.39839104 6.0625 65.31640625 C6.07410156 66.16662354 6.08570313 67.01684082 6.09765625 67.89282227 C6 70 6 70 5 72 C1.9375 72.625 1.9375 72.625 -1 73 C-3.34368832 69.35426261 -3.07096195 66.61618159 -2.6875 62.375 C-2.5756159 61.0222347 -2.46499169 59.66936476 -2.35546875 58.31640625 C-2.29536621 57.60887207 -2.23526367 56.90133789 -2.17333984 56.17236328 C-1.88477761 52.55598752 -1.69292581 48.9350408 -1.5 45.3125 C-1.4597168 44.56613281 -1.41943359 43.81976563 -1.37792969 43.05078125 C-1.29453951 41.50116856 -1.21170363 39.95152596 -1.12939453 38.40185547 C-0.99596872 35.92517039 -0.85551457 33.44893948 -0.71484375 30.97265625 C-0.14392361 20.63375749 0.13016563 10.35539869 0 0 Z " fill="#575E6A" transform="translate(336,425)"/>
<path d="M0 0 C2.64 0 5.28 0 8 0 C8.13277344 0.73605469 8.26554688 1.47210938 8.40234375 2.23046875 C8.57894531 3.20628906 8.75554688 4.18210937 8.9375 5.1875 C9.11152344 6.15042969 9.28554688 7.11335938 9.46484375 8.10546875 C10.23724836 12.28321924 11.08806206 16.4444723 11.93969727 20.60668945 C12.1198085 21.48722488 12.29991974 22.36776031 12.48548889 23.27497864 C12.67719162 24.2116185 12.86889435 25.14825836 13.06640625 26.11328125 C13.26475571 27.08283249 13.46310516 28.05238373 13.66746521 29.05131531 C14.29904081 32.13839789 14.93076838 35.22544935 15.5625 38.3125 C15.99154649 40.40950316 16.42058306 42.50650834 16.84960938 44.60351562 C17.89962464 49.73570061 18.94976457 54.86786007 20 60 C23.0685232 50.7944304 25.23222275 41.29505011 27.25 31.8125 C27.5126062 30.59240234 27.5126062 30.59240234 27.78051758 29.34765625 C27.94060303 28.579375 28.10068848 27.81109375 28.265625 27.01953125 C28.40774414 26.33995361 28.54986328 25.66037598 28.69628906 24.96020508 C29.10207431 22.67179301 29.10207431 22.67179301 29 19 C29.66 19 30.32 19 31 19 C31.03738281 18.04738281 31.07476563 17.09476562 31.11328125 16.11328125 C31.17902344 14.85902344 31.24476563 13.60476563 31.3125 12.3125 C31.37050781 11.07113281 31.42851563 9.82976562 31.48828125 8.55078125 C32.02059375 4.85710136 32.56286151 2.82194983 35 0 C37.48046875 -0.48828125 37.48046875 -0.48828125 40.1875 -0.3125 C41.08855469 -0.26738281 41.98960937 -0.22226562 42.91796875 -0.17578125 C43.60503906 -0.11777344 44.29210937 -0.05976563 45 0 C45.19335938 0.78503906 45.38671875 1.57007813 45.5859375 2.37890625 C47.21100113 8.97020601 47.21100113 8.97020601 49.0625 15.5 C49.84887962 18.43581726 50.37278492 21.20747393 50.83203125 24.203125 C52.10161805 31.96034145 53.86277828 39.59412563 55.625 47.25 C55.95344439 48.68872921 56.28157132 50.12753093 56.609375 51.56640625 C57.40260335 55.04511182 58.2000836 58.52282542 59 62 C59.81410023 57.95865397 60.62599659 53.91686821 61.4375 49.875 C61.66759766 48.73289062 61.89769531 47.59078125 62.13476562 46.4140625 C62.35712891 45.30546875 62.57949219 44.196875 62.80859375 43.0546875 C63.01282959 42.03874512 63.21706543 41.02280273 63.42749023 39.97607422 C63.81165962 37.97904872 64.17035437 35.97696674 64.50439453 33.97094727 C65.33818401 28.97272847 66.40569911 24.02296551 67.4375 19.0625 C67.65470703 18.00353516 67.87191406 16.94457031 68.09570312 15.85351562 C69.20825784 10.49788437 70.39999669 5.23163872 72 0 C74.31 0 76.62 0 79 0 C77.73935308 8.9359516 76.07174383 17.70386454 74.0625 26.5 C73.81048828 27.62019531 73.55847656 28.74039062 73.29882812 29.89453125 C71.77547448 36.6502735 70.21757604 43.3978481 68.64624023 50.14257812 C68.05534904 52.75526818 67.51630998 55.37173635 67 58 C66.4823242 60.43817255 65.96131141 62.87563824 65.4375 65.3125 C65.16808594 66.56675781 64.89867187 67.82101562 64.62109375 69.11328125 C64.41613281 70.06589844 64.21117187 71.01851563 64 72 C59.05 72.495 59.05 72.495 54 73 C53.79503906 72.30132812 53.59007812 71.60265625 53.37890625 70.8828125 C53.10949219 69.97273438 52.84007812 69.06265625 52.5625 68.125 C52.29566406 67.22007812 52.02882813 66.31515625 51.75390625 65.3828125 C51.07386174 63.01724619 51.07386174 63.01724619 50 61 C49.66666667 58.66666667 49.33333333 56.33333333 49 54 C47.98771864 48.3421249 47.98771864 48.3421249 46 43 C45.855625 41.948125 45.71125 40.89625 45.5625 39.8125 C45.11270811 36.7639105 44.43371538 34.08488717 43.53515625 31.15625 C42.5513828 27.19243289 42.10048856 23.13045866 41.5625 19.0859375 C41.02827331 16.15511049 40.21001162 13.71244271 39 11 C39 12.32 39 13.64 39 15 C38.34 15 37.68 15 37 15 C37 18.3 37 21.6 37 25 C36.34 25 35.68 25 35 25 C35.20625 25.556875 35.4125 26.11375 35.625 26.6875 C36.11473307 29.70752061 35.13637506 31.15906235 34 34 C33.69825661 36.23860975 33.50241532 38.46570239 33.34375 40.71875 C33 43 33 43 32.02734375 45.4296875 C30.92237898 48.19420012 30.47906896 50.68124604 30.0625 53.625 C29.38700055 57.82348888 28.65746694 61.9835681 27.6875 66.125 C27.48511719 67.01445312 27.28273438 67.90390625 27.07421875 68.8203125 C26 71 26 71 23.5703125 72.296875 C20.9221372 73.02129986 18.73163246 73.15609328 16 73 C13.22956104 68.18184528 12.54231459 64.4231459 12 59 C11.67 58.34 11.34 57.68 11 57 C11.33 56.01 11.66 55.02 12 54 C11.34 53.67 10.68 53.34 10 53 C9.40234375 50.70703125 9.40234375 50.70703125 8.9375 47.8125 C8.69193359 46.31976563 8.69193359 46.31976563 8.44140625 44.796875 C8.22291016 43.41242188 8.22291016 43.41242188 8 42 C7.79375 40.865625 7.5875 39.73125 7.375 38.5625 C7 36 7 36 7 32 C6.34 31.67 5.68 31.34 5 31 C4.6020796 27.63576389 4.49087377 24.29009676 4.34375 20.90625 C4.17359375 19.46765625 4.17359375 19.46765625 4 18 C3.34 17.67 2.68 17.34 2 17 C1.3671875 14.453125 1.3671875 14.453125 0.875 11.25 C0.62363281 9.67992187 0.62363281 9.67992187 0.3671875 8.078125 C0.04101672 5.3438423 -0.07126854 2.74892942 0 0 Z " fill="#575E6A" transform="translate(646,316)"/>
<path d="M0 0 C3.98340305 -0.09973852 7.96631108 -0.17187198 11.95068359 -0.21972656 C13.96347627 -0.24946045 15.97592134 -0.30031729 17.98828125 -0.3515625 C26.34581021 -0.43555777 32.53267282 -0.25866222 38.83984375 5.75390625 C42.58736166 11.92864217 43.67320055 18.06319598 42.6953125 25.234375 C40.95489669 31.38543361 36.27518985 34.75777368 31 38 C29.35008418 38.70710678 27.68680673 39.38607388 26 40 C27.07955259 41.73152958 28.16382512 43.46011684 29.25 45.1875 C29.85328125 46.15042969 30.4565625 47.11335938 31.078125 48.10546875 C32.95971895 51.04205091 32.95971895 51.04205091 35.234375 53.73828125 C37 56 37 56 37 58 C37.66 58 38.32 58 39 58 C40.47265625 59.86328125 40.47265625 59.86328125 42.0625 62.3125 C42.58972656 63.11300781 43.11695313 63.91351563 43.66015625 64.73828125 C45 67 45 67 46 70 C46.99 70.495 46.99 70.495 48 71 C47 72 47 72 44.4375 72.0625 C43.633125 72.041875 42.82875 72.02125 42 72 C42 72.66 42 73.32 42 74 C39.5625 73.25 39.5625 73.25 37 72 C36.3125 69.9375 36.3125 69.9375 36 68 C35.01 67.505 35.01 67.505 34 67 C32.76122256 65.24339642 31.58143623 63.44478999 30.4375 61.625 C29.81746094 60.64789063 29.19742187 59.67078125 28.55859375 58.6640625 C27 56 27 56 26 53 C25.34 53 24.68 53 24 53 C22.74163402 51.23596271 21.5661735 49.41220501 20.4375 47.5625 C18.46466077 44.09563564 18.46466077 44.09563564 16 41 C14.65252916 40.76924918 13.29622435 40.58846937 11.9375 40.4375 C10.638125 40.293125 9.33875 40.14875 8 40 C8.0721875 40.55945313 8.144375 41.11890625 8.21875 41.6953125 C8.9592474 48.09238723 9.05282995 54.36392867 8.9375 60.80078125 C8.90146964 63.94220962 8.90146964 63.94220962 9.5625 66.73046875 C10 69 10 69 9 72 C6.6739143 72.38063221 4.33944736 72.71269945 2 73 C-0.38142012 70.61857988 0.55684216 64.75319091 0.4375 61.5625 C0.39431641 60.47461182 0.35113281 59.38672363 0.30664062 58.26586914 C-0.08780434 47.02027456 -0.06017131 35.77832228 0.03686523 24.52758789 C0.14861785 16.4003271 0.14861785 16.4003271 -0.5625 8.31640625 C-0.98443469 5.11799063 -0.71179592 3.09466456 0 0 Z M8 7 C7.91241997 8.99964982 7.89303424 11.0023611 7.90234375 13.00390625 C7.90556641 14.21884766 7.90878906 15.43378906 7.91210938 16.68554688 C7.92048828 17.96494141 7.92886719 19.24433594 7.9375 20.5625 C7.94201172 21.84576172 7.94652344 23.12902344 7.95117188 24.45117188 C7.96300455 27.63416022 7.97948932 30.81705762 8 34 C9.56765272 34.02045753 11.13538461 34.03489009 12.703125 34.046875 C13.57614258 34.05557617 14.44916016 34.06427734 15.34863281 34.07324219 C22.12927982 33.8859315 27.70086963 32.39440079 33 28 C35.77300854 23.56508565 35.51006384 19.06773102 35 14 C33.60740093 10.14987315 32.54084518 9.28167599 28.90234375 7.38671875 C24.77954947 5.69500114 21.03020744 5.62019647 16.625 5.75 C15.90183594 5.75515625 15.17867188 5.7603125 14.43359375 5.765625 C10.92311263 5.51922031 10.92311263 5.51922031 8 7 Z " fill="#565E6A" transform="translate(335,316)"/>
<path d="M0 0 C1.12388384 8.42912882 1.54259423 16.75593478 0.46484375 25.2109375 C-0.38834172 33.34286148 0.15905042 41.53313193 0.4375 49.6875 C0.51700516 52.18744173 0.59467885 54.68743316 0.67164612 57.18745422 C0.71983667 58.732426 0.76979964 60.27734393 0.82188416 61.82218933 C1.24955364 74.84559123 1.24955364 74.84559123 0 80 C-2.875 80.625 -2.875 80.625 -6 81 C-6.99 80.01 -6.99 80.01 -8 79 C-7.67 78.34 -7.34 77.68 -7 77 C-7.94875 77.639375 -8.8975 78.27875 -9.875 78.9375 C-14.44883724 81.49590393 -18.76412519 82.45901428 -24 82 C-29.83907983 80.09831977 -34.78758039 77.40270571 -38 72 C-38 71.34 -38 70.68 -38 70 C-38.66 69.67 -39.32 69.34 -40 69 C-42.93222348 61.41071571 -44.62437685 51.77675838 -41.375 44.125 C-40.61882618 42.73016586 -39.82798668 41.35343976 -39 40 C-38.6596875 39.36320312 -38.319375 38.72640625 -37.96875 38.0703125 C-34.19806657 31.79481794 -27.93019923 29.08707638 -21.0625 27.1875 C-16.37394548 26.90044564 -11.69537513 26.92480716 -7 27 C-7.495 25.515 -7.495 25.515 -8 24 C-8.34769573 20.50922695 -8.46551705 17.0039342 -8.625 13.5 C-8.6765625 12.53707031 -8.728125 11.57414062 -8.78125 10.58203125 C-8.82507813 9.65777344 -8.86890625 8.73351562 -8.9140625 7.78125 C-8.9548291 6.93626953 -8.9955957 6.09128906 -9.03759766 5.22070312 C-9 3 -9 3 -8 0 C-4.99093136 -1.24513185 -3.0590674 -0.84653438 0 0 Z M-30 39 C-30 39.66 -30 40.32 -30 41 C-30.99 41.495 -30.99 41.495 -32 42 C-35.67396688 48.50009525 -35.9569413 54.98252398 -34.56640625 62.2734375 C-32.91371946 67.63183815 -29.78870049 71.12479681 -25 74 C-19.9435627 75.5628988 -16.56211341 74.85234846 -11.796875 72.984375 C-9.59815607 71.77985941 -8.49568831 71.05320042 -7 69 C-6.72622196 66.2828467 -6.62701332 63.79999604 -6.671875 61.0859375 C-6.67374817 60.31569244 -6.67562134 59.54544739 -6.67755127 58.75186157 C-6.68426744 57.12619692 -6.69817344 55.5005483 -6.71875 53.875 C-6.74996934 51.37745267 -6.75972719 48.88053581 -6.765625 46.3828125 C-6.77479239 44.80467975 -6.78516733 43.22655345 -6.796875 41.6484375 C-6.80112488 40.89742767 -6.80537476 40.14641785 -6.80975342 39.37265015 C-6.54664572 35.89434278 -6.54664572 35.89434278 -8 33 C-15.93010138 32.3899922 -23.85728619 33.82718837 -30 39 Z " fill="#585E6A" transform="translate(886,308)"/>
<path d="M0 0 C1.03385543 3.1015663 0.80955185 4.74235503 0.29345703 7.89111328 C-0.28498047 12.04797112 -0.37851023 16.24796248 -0.5625 20.4375 C-0.60568359 21.35982422 -0.64886719 22.28214844 -0.69335938 23.23242188 C-0.79854931 25.48816163 -0.90069107 27.74399499 -1 30 C0.1859375 29.5153125 1.371875 29.030625 2.59375 28.53125 C8.97049062 26.15119892 15.91897192 25.58733643 22.4375 27.84375 C29.64335404 31.88339545 32.68809567 38.25040519 34.9375 45.9375 C37.14035113 56.05289109 33.46514848 64.42084243 28 73 C22.0497256 79.17758825 14.18688398 80.47449056 6 81 C4.54174578 81.01519015 3.08324464 81.01608358 1.625 81 C-1.95388345 80.80894572 -1.95388345 80.80894572 -5 82 C-7 81 -7 81 -7.61889648 79.26379395 C-8.04636671 76.72457698 -8.11241053 74.3550531 -8.09765625 71.77929688 C-8.09435303 70.73721069 -8.0910498 69.69512451 -8.08764648 68.62145996 C-8.07934814 67.49856567 -8.0710498 66.37567139 -8.0625 65.21875 C-8.05871338 64.05428345 -8.05492676 62.88981689 -8.05102539 61.69006348 C-8.03471515 56.71227689 -8.0067639 51.73457269 -7.97949219 46.75683594 C-7.96126055 43.11914459 -7.94925191 39.48146718 -7.9375 35.84375 C-7.92920166 34.73704956 -7.92090332 33.63034912 -7.91235352 32.4901123 C-7.89263818 26.11989507 -8.17430877 19.86387307 -8.79527283 13.52288818 C-9.03717451 10.54189212 -8.91397796 7.71803613 -8.5625 4.75 C-8.46066406 3.83734375 -8.35882813 2.9246875 -8.25390625 1.984375 C-8.17011719 1.32953125 -8.08632813 0.6746875 -8 0 C-4.71303767 -0.79953138 -3.28976808 -1.09658936 0 0 Z M0 38 C-0.08855161 40.6662603 -0.11524673 43.30647114 -0.09765625 45.97265625 C-0.0962413 46.77029892 -0.09482635 47.56794159 -0.09336853 48.38975525 C-0.08775316 50.94737435 -0.07519812 53.50490718 -0.0625 56.0625 C-0.05748698 57.79231645 -0.05292373 59.52213426 -0.04882812 61.25195312 C-0.03777875 65.50133553 -0.02050386 69.75065312 0 74 C1.5740338 74.03745448 3.14833052 74.06394293 4.72265625 74.0859375 C6.03762085 74.10986572 6.03762085 74.10986572 7.37915039 74.13427734 C12.54528439 73.86959419 16.71546748 71.85635501 21 69 C21 68.34 21 67.68 21 67 C22.485 66.505 22.485 66.505 24 66 C27.78733924 60.31899114 28.55390091 54.00694272 27.6328125 47.34375 C26.33743259 42.03429159 24.46122895 38.34858707 20.01953125 35.06640625 C13.22728673 31.47978584 5.53295286 32.46704714 0 38 Z " fill="#575E6A" transform="translate(455,308)"/>
<path d="M0 0 C-0.00222061 0.63130829 -0.00444122 1.26261658 -0.00672913 1.91305542 C-0.02928092 8.6321352 -0.04410833 15.35120385 -0.05493164 22.0703125 C-0.05988463 24.56022581 -0.06664883 27.05013634 -0.07543945 29.54003906 C-0.13446293 46.7193427 0.19029296 63.83900017 1 81 C-1.64 81.33 -4.28 81.66 -7 82 C-7.33 80.68 -7.66 79.36 -8 78 C-8.556875 78.474375 -9.11375 78.94875 -9.6875 79.4375 C-14.86713624 82.93725421 -21.96570049 82.6477998 -28 82 C-31.4375 80.25 -31.4375 80.25 -34 78 C-34.70125 77.443125 -35.4025 76.88625 -36.125 76.3125 C-42.5339606 68.40811526 -43.25338668 60.19085226 -42.43359375 50.4140625 C-41.52199384 43.23623976 -38.37076048 37.85295174 -33 33 C-26.79873741 28.97525899 -21.03880907 27.85671638 -13.6875 27.9375 C-12.08455078 27.95103516 -12.08455078 27.95103516 -10.44921875 27.96484375 C-9.64097656 27.97644531 -8.83273437 27.98804688 -8 28 C-8.05329468 27.09290283 -8.05329468 27.09290283 -8.10766602 26.16748047 C-8.26615015 23.4036653 -8.41440764 20.63939067 -8.5625 17.875 C-8.64661133 16.44800781 -8.64661133 16.44800781 -8.73242188 14.9921875 C-8.98398897 10.16209924 -9.08138496 5.75809383 -8 1 C-5.07175348 0.02391783 -3.04386724 -0.08226668 0 0 Z M-22.625 35.5 C-23.46289062 35.7784375 -24.30078125 36.056875 -25.1640625 36.34375 C-25.76992188 36.5603125 -26.37578125 36.776875 -27 37 C-27 37.66 -27 38.32 -27 39 C-27.8971875 39.37125 -27.8971875 39.37125 -28.8125 39.75 C-31.37417109 41.21381205 -32.41845037 42.52034047 -34 45 C-35.84409545 52.50810291 -35.78550962 61.42898077 -32.3125 68.375 C-29.23614796 71.86707528 -26.59221601 74.53642852 -21.859375 75.3828125 C-16.15655576 75.67377267 -12.51831372 74.48286683 -8 71 C-6.71760857 66.90379091 -6.88536394 62.77365131 -6.90234375 58.51171875 C-6.9037587 57.80852005 -6.90517365 57.10532135 -6.90663147 56.3808136 C-6.91219891 54.14966456 -6.92474525 51.91861836 -6.9375 49.6875 C-6.94251921 48.16862125 -6.94708138 46.64974091 -6.95117188 45.13085938 C-6.96215764 41.42053988 -6.97939966 37.71027999 -7 34 C-14.92678325 33.78360414 -14.92678325 33.78360414 -22.625 35.5 Z " fill="#575E6A" transform="translate(509,416)"/>
<path d="M0 0 C-0.33 10.56 -0.66 21.12 -1 32 C2.3 30.35 5.6 28.7 9 27 C15.31074103 25.44658682 20.26373505 26.06411636 26 29 C32.83983403 35.49784233 31.70950555 46.14083287 32 55 C32.04481876 59.20562991 32.02698037 63.41036929 31.96313477 67.61572266 C31.91920434 71.56109303 32.01128959 75.14557425 33 79 C28.56923077 81.09230769 28.56923077 81.09230769 25.6875 80.625 C24.8521875 80.315625 24.8521875 80.315625 24 80 C22.94235398 75.73588081 22.91691444 71.64578188 23.0078125 67.28515625 C23.02532758 65.7793036 23.04223598 64.27344379 23.05859375 62.76757812 C23.08952707 60.412963 23.12507453 58.05871135 23.17138672 55.7043457 C23.21392078 53.41873755 23.23721558 51.13355357 23.2578125 48.84765625 C23.27643341 48.15060074 23.29505432 47.45354523 23.3142395 46.73536682 C23.33842881 42.08477756 22.47085614 38.93898085 20 35 C15.70620638 33.06113583 11.56628608 33.80179987 7.25 35.3125 C6.1775 35.869375 5.105 36.42625 4 37 C2.3357865 37.67276716 0.67013418 38.34206835 -1 39 C-0.75601219 39.8708725 -0.75601219 39.8708725 -0.50709534 40.75933838 C0.29440923 44.30088254 0.12129632 47.87198745 0.09765625 51.484375 C0.0962413 52.29996887 0.09482635 53.11556274 0.09336853 53.95587158 C0.08778303 56.55395212 0.07523321 59.15194563 0.0625 61.75 C0.05748312 63.51432167 0.05292054 65.27864469 0.04882812 67.04296875 C0.03781835 71.36201256 0.02056369 75.68099154 0 80 C-2.64 80 -5.28 80 -8 80 C-8 53.6 -8 27.2 -8 0 C-4 -1 -4 -1 0 0 Z " fill="#565E6B" transform="translate(1034,308)"/>
<path d="M0 0 C0 10.56 0 21.12 0 32 C2.64 30.68 5.28 29.36 8 28 C14.751982 26.3120045 19.91223064 26.39243297 26 30 C30.93523912 35.60107181 31.73872311 40.94049321 31.70703125 48.1875 C31.72215256 49.13061035 31.73727386 50.0737207 31.75285339 51.04541016 C31.79552569 54.03052055 31.80454861 57.01461577 31.8125 60 C31.83566021 62.03518285 31.86102869 64.07034185 31.88867188 66.10546875 C31.95132209 71.07040144 31.98381711 76.03470724 32 81 C28.71303767 81.79953138 27.28976808 82.09658936 24 81 C23.8262349 77.68783386 23.66140075 74.37529119 23.5 71.0625 C23.45085449 70.06863281 23.40170898 69.07476562 23.35107422 68.05078125 C23.00485386 60.52320262 23.0058356 53.06091252 23.2578125 45.53125 C22.97237005 41.62155345 22.10721535 39.28725595 20 36 C15.29903976 34.36013015 10.79608552 35.07172538 6 36 C3.67780342 37.44730093 3.67780342 37.44730093 2 39 C1.34 39 0.68 39 0 39 C-0.0927321 47.9022818 -0.10745305 56.74333666 0.5625 65.625 C0.94622942 70.96523444 0.98593255 75.74169306 0 81 C-2.31 81 -4.62 81 -7 81 C-7.7871316 77.53348878 -8.11866044 74.35348523 -8.09765625 70.80175781 C-8.09435303 69.79010559 -8.0910498 68.77845337 -8.08764648 67.73614502 C-8.07934814 66.65274841 -8.0710498 65.56935181 -8.0625 64.453125 C-8.05871338 63.32735046 -8.05492676 62.20157593 -8.05102539 61.04168701 C-8.03471696 56.23477702 -8.00665689 51.42795271 -7.97949219 46.62109375 C-7.96132786 43.10677489 -7.9492807 39.59247016 -7.9375 36.078125 C-7.92505249 34.46517548 -7.92505249 34.46517548 -7.91235352 32.81964111 C-7.89289168 26.78493042 -8.23750757 20.98589777 -9 15 C-9.08295513 12.85536594 -9.13058187 10.70873057 -9.125 8.5625 C-9.12757813 7.55316406 -9.13015625 6.54382813 -9.1328125 5.50390625 C-9 3 -9 3 -8 1 C-5 0 -5 0 0 0 Z " fill="#565E6A" transform="translate(809,416)"/>
<path d="M0 0 C0 2.31 0 4.62 0 7 C-1.66666667 7 -3.33333333 7 -5 7 C-5 6.34 -5 5.68 -5 5 C-15.05821757 3.34776833 -15.05821757 3.34776833 -24.875 5.125 C-27.63927472 7.56406593 -28.79194159 9.51005348 -30 13 C-29.93421103 16.81576008 -29.78290107 19.0677178 -27.30078125 22.0234375 C-24.74665268 24.21764642 -22.28704713 25.55228841 -19.25 27 C-18.19039062 27.51691406 -17.13078125 28.03382813 -16.0390625 28.56640625 C-14.25258702 29.40912669 -12.45850494 30.23656678 -10.6484375 31.02734375 C-4.25142536 33.90476427 -0.36679512 37.85042864 2.4375 44.3125 C3.61915227 52.0588871 2.61248323 58.4029141 -1.57421875 65.08984375 C-5.47974255 70.32217563 -9.67168406 71.26096807 -15.875 72.25 C-17.91481626 72.51467415 -19.95603734 72.7695235 -22 73 C-22.33 72.34 -22.66 71.68 -23 71 C-24.485 71.495 -24.485 71.495 -26 72 C-28.41015625 71.3984375 -28.41015625 71.3984375 -31.0625 70.375 C-31.94035156 70.05273438 -32.81820312 69.73046875 -33.72265625 69.3984375 C-36.60948858 67.62573428 -37.14596202 66.23136008 -38 63 C-37.625 60.1875 -37.625 60.1875 -37 58 C-35.0269158 58.9648121 -33.09641611 59.94231874 -31.2109375 61.0703125 C-25.8451211 64.15280277 -21.13290657 64.96887938 -15 64 C-10.673711 62.63081865 -8.37429143 60.61992019 -6 56.6875 C-4.87183686 52.52739842 -4.84906978 50.14334879 -6 46 C-9.08575091 41.14987171 -12.57559451 39.44772979 -17.6875 37.3125 C-24.88146936 34.23706127 -24.88146936 34.23706127 -26 32 C-26.763125 31.896875 -27.52625 31.79375 -28.3125 31.6875 C-31.9211123 30.76436662 -32.89140835 28.98111233 -35 26 C-35.66 25.34 -36.32 24.68 -37 24 C-38.88042493 18.3587252 -38.780465 12.21816369 -36.8125 6.625 C-28.47996107 -5.442815 -12.56364043 -7.32879025 0 0 Z " fill="#575E6A" transform="translate(738,427)"/>
<path d="M0 0 C4.87905997 4.10284588 7.72792435 8.75526501 9 15 C9.08917199 16.56050976 9.1301671 18.12445308 9.125 19.6875 C9.12886719 20.86892578 9.12886719 20.86892578 9.1328125 22.07421875 C9 24 9 24 8 25 C5.40640678 25.08851529 2.83960309 25.11525945 0.24609375 25.09765625 C-0.52935287 25.0962413 -1.3047995 25.09482635 -2.10374451 25.09336853 C-4.59003494 25.08775345 -7.0762366 25.07519846 -9.5625 25.0625 C-11.24413933 25.05748694 -12.92578006 25.0529237 -14.60742188 25.04882812 C-18.73831566 25.03777913 -22.86914276 25.02050445 -27 25 C-26.67 26.0725 -26.34 27.145 -26 28.25 C-25 32 -25 32 -25 36 C-24.34 36.33 -23.68 36.66 -23 37 C-22.2575 37.969375 -21.515 38.93875 -20.75 39.9375 C-18.11541752 43.11427192 -16.17382437 44.29123737 -12 45 C-4.51710473 45.20431113 0.80080803 43.05792518 7 39 C7.97608217 41.92824652 8.08226668 43.95613276 8 47 C6.730447 47.64834654 5.45930294 48.29357815 4.1875 48.9375 C3.12595703 49.47697266 3.12595703 49.47697266 2.04296875 50.02734375 C-4.70322015 53.23920042 -14.11096303 53.05053687 -21.36328125 51.4921875 C-26.92863828 48.85663912 -30.41371767 42.33329407 -33 37 C-35.52575042 26.01153411 -34.66879332 15.48153487 -29.125 5.6875 C-21.66418137 -3.74824121 -10.4059938 -5.69384566 0 0 Z M-23 8 C-23 8.99 -23 9.98 -23 11 C-23.66 11 -24.32 11 -25 11 C-25.33 13.31 -25.66 15.62 -26 18 C-16.76 18 -7.52 18 2 18 C0.59746643 9.18251646 0.59746643 9.18251646 -5 4 C-12.07758617 2.10949284 -17.63805843 2.63805843 -23 8 Z " fill="#5B5C68" transform="translate(447,446)"/>
<path d="M0 0 C4.10020957 3.9741984 5.99602333 9.04383766 7.125 14.5625 C7.125 17.5325 7.125 20.5025 7.125 23.5625 C-4.755 23.5625 -16.635 23.5625 -28.875 23.5625 C-25.8486182 35.97921231 -25.8486182 35.97921231 -17.5625 42.875 C-10.00126438 44.80926958 -5.66784879 43.37813768 0.92578125 39.55859375 C3.125 38.5625 3.125 38.5625 6.125 39.5625 C6.1875 42.8125 6.1875 42.8125 5.125 46.5625 C-0.42050471 50.91141089 -8.04347676 51.61425396 -14.875 51.5625 C-18.6613145 51.07092285 -21.39793755 49.91481993 -24.6875 48 C-25.47769531 47.54496094 -26.26789063 47.08992188 -27.08203125 46.62109375 C-27.67371094 46.27175781 -28.26539063 45.92242187 -28.875 45.5625 C-28.875 44.9025 -28.875 44.2425 -28.875 43.5625 C-29.535 43.5625 -30.195 43.5625 -30.875 43.5625 C-30.99875 42.923125 -31.1225 42.28375 -31.25 41.625 C-31.45625 40.944375 -31.6625 40.26375 -31.875 39.5625 C-32.535 39.2325 -33.195 38.9025 -33.875 38.5625 C-37.13030089 29.42925299 -37.42462807 18.51227596 -33.796875 9.42578125 C-31.35938013 4.49914966 -28.62151507 -0.06424247 -23.625 -2.5625 C-15.56252091 -5.12783426 -7.03415185 -5.22278228 0 0 Z M-23.875 5.5625 C-26.6378416 9.2919556 -27.75724061 13.09146244 -28.875 17.5625 C-19.635 17.5625 -10.395 17.5625 -0.875 17.5625 C-0.875 12.92056418 -1.10105979 9.94914287 -3.375 5.875 C-9.56440467 0.14980068 -17.29091652 0.5749578 -23.875 5.5625 Z " fill="#575E6A" transform="translate(536.875,338.4375)"/>
<path d="M0 0 C6.52645367 6.44801072 8.59712907 15.69061346 9.1796875 24.54296875 C9.125 26.625 9.125 26.625 8.125 27.625 C7.80147018 29.16029607 7.51627349 30.70374517 7.25 32.25 C6.39685852 36.74838234 5.09608745 40.50363534 3.125 44.625 C2.465 44.625 1.805 44.625 1.125 44.625 C0.795 45.615 0.465 46.605 0.125 47.625 C-7.71378746 51.96135051 -15.68288005 52.33782026 -24.2578125 50.09765625 C-25.05832031 49.86369141 -25.05832031 49.86369141 -25.875 49.625 C-25.875 48.965 -25.875 48.305 -25.875 47.625 C-26.49375 47.3775 -27.1125 47.13 -27.75 46.875 C-30.25318306 45.40253937 -30.70545281 44.21471163 -31.875 41.625 C-32.535 41.295 -33.195 40.965 -33.875 40.625 C-34.69140625 38.48046875 -34.69140625 38.48046875 -35.4375 35.8125 C-35.68628906 34.93980469 -35.93507813 34.06710937 -36.19140625 33.16796875 C-36.41699219 32.32878906 -36.64257812 31.48960937 -36.875 30.625 C-37.184375 29.71234375 -37.184375 29.71234375 -37.5 28.78125 C-38.80603487 21.27154947 -37.13384065 11.63832696 -32.9375 5.3125 C-28.78115696 -0.09818697 -25.45661789 -2.51541171 -18.75 -4.125 C-12.16119344 -4.55008429 -5.4610336 -4.04211876 0 0 Z M-22.875 4.625 C-22.875 5.285 -22.875 5.945 -22.875 6.625 C-23.535 6.625 -24.195 6.625 -24.875 6.625 C-28.26868047 12.55047383 -29.5141277 16.83093053 -29.375 23.625 C-29.39046875 24.38039063 -29.4059375 25.13578125 -29.421875 25.9140625 C-29.38306199 31.56135601 -28.00727186 35.90668079 -24.875 40.625 C-21.38196318 43.95170173 -18.58332017 44.91178756 -13.875 45.1875 C-10.19189203 45.01026774 -8.76512634 44.56307121 -5.4375 42.6875 C1.14211215 34.82406109 0.93863023 25.52231024 0.125 15.625 C-0.97841566 10.49283412 -3.73525107 6.8238969 -7.875 3.625 C-13.26562224 2.39555984 -17.97228812 1.82345035 -22.875 4.625 Z " fill="#585E6A" transform="translate(824.875,338.375)"/>
<path d="M0 0 C6.79138321 5.14540642 9.59853654 12.71931052 10.8359375 20.94287109 C11.54902969 29.88411331 8.86728569 39.69468313 3.86328125 47.0703125 C-0.36415545 51.44841257 -6.03223411 53.08926308 -12 53.5 C-18.26682219 53.1313634 -23.96353881 50.51651365 -28.9375 46.8125 C-31.70161878 43.04324712 -32.88634634 39.50927248 -34 35 C-34.24105469 34.06671875 -34.48210938 33.1334375 -34.73046875 32.171875 C-36.73963102 22.86884486 -35.43992267 14.75415315 -30.625 6.5 C-23.612861 -3.55908036 -10.58947119 -6.19664447 0 0 Z M-22 7 C-22 7.66 -22 8.32 -22 9 C-22.66 9 -23.32 9 -24 9 C-26.67261613 14.37351392 -27.47110284 18.5309461 -27.375 24.5 C-27.38660156 25.22058594 -27.39820313 25.94117188 -27.41015625 26.68359375 C-27.37485616 33.19057709 -25.85408739 37.8677995 -21.5 42.875 C-17.47098205 46.29966526 -14.15529643 46.34951162 -9 46 C-3.81945496 44.17157234 -1.67003518 41.7467292 1 37 C2.29856962 33.10429113 2.26324136 29.37469608 2.3125 25.3125 C2.35600586 24.14557617 2.35600586 24.14557617 2.40039062 22.95507812 C2.47646921 15.93829212 0.54249293 10.67992498 -4.3125 5.5625 C-11.01535293 1.66549248 -15.90702098 2.93801399 -22 7 Z " fill="#575E6A" transform="translate(889,446)"/>
<path d="M0 0 C6.40341113 8.46227356 7.06239093 19.00652512 5.9375 29.1875 C4.66889941 36.00254039 1.55931584 42.20504082 -3.56640625 46.89453125 C-9.31816907 50.23055369 -14.20504031 51.42049118 -20.75390625 50.01953125 C-26.98037475 48.0762901 -32.70799446 45.27346177 -35.94140625 39.39453125 C-36.14765625 38.56953125 -36.35390625 37.74453125 -36.56640625 36.89453125 C-36.91703125 35.96640625 -37.26765625 35.03828125 -37.62890625 34.08203125 C-40.69145583 23.66936269 -39.30428649 13.05033135 -35.0234375 3.09375 C-31.57714124 -2.10803229 -25.93790632 -4.41557782 -20.12890625 -6.10546875 C-12.59885363 -6.10546875 -5.57445547 -5.49424747 0 0 Z M-27.75390625 5.83203125 C-31.9294233 12.88721524 -32.40792012 21.98771375 -30.56640625 29.89453125 C-29.69244276 32.64061652 -28.68027929 35.23092182 -27.56640625 37.89453125 C-26.90640625 37.89453125 -26.24640625 37.89453125 -25.56640625 37.89453125 C-25.29828125 38.53390625 -25.03015625 39.17328125 -24.75390625 39.83203125 C-23.67972873 42.22584811 -23.67972873 42.22584811 -20.56640625 42.89453125 C-19.0905401 43.01140463 -17.60934013 43.06954867 -16.12890625 43.08203125 C-15.36707031 43.09621094 -14.60523438 43.11039062 -13.8203125 43.125 C-11.3329331 42.87065791 -9.71832519 42.13470321 -7.56640625 40.89453125 C-7.56640625 40.23453125 -7.56640625 39.57453125 -7.56640625 38.89453125 C-6.08140625 38.39953125 -6.08140625 38.39953125 -4.56640625 37.89453125 C-0.82978731 29.17575373 -0.00731132 18.4904875 -3.19140625 9.51953125 C-5.1765674 5.12035881 -6.9784272 2.79897538 -11.56640625 0.89453125 C-18.48958795 -0.14516918 -22.53298178 1.20778386 -27.75390625 5.83203125 Z " fill="#575E6A" transform="translate(1217.56640625,340.10546875)"/>
<path d="M0 0 C6.88405925 7.55567479 8.32871897 15.84696183 8.5625 25.8125 C7.94014699 33.79936366 6.0561607 40.80380861 0.5625 46.8125 C-0.0975 46.8125 -0.7575 46.8125 -1.4375 46.8125 C-1.7675 47.8025 -2.0975 48.7925 -2.4375 49.8125 C-8.58630995 52.61521337 -15.98525266 52.20514345 -22.4375 50.8125 C-28.72025192 47.49977626 -32.68892404 43.35672848 -35.4375 36.8125 C-37.57394791 26.35127232 -38.08191212 14.04627464 -32.11328125 4.75 C-28.26505677 -0.09815682 -24.27674006 -2.46377214 -18.25 -4 C-11.98526253 -4.30810184 -5.14842933 -3.95932509 0 0 Z M-19.4375 2.8125 C-19.4375 3.4725 -19.4375 4.1325 -19.4375 4.8125 C-20.015 4.874375 -20.5925 4.93625 -21.1875 5 C-24.60607582 6.23448571 -25.55901513 7.68169188 -27.4375 10.8125 C-29.82834334 19.5162443 -30.61578545 28.30946306 -27.25 36.8125 C-25.1373491 40.30930149 -23.12460623 43.00358567 -19.4375 44.8125 C-14.427812 45.74927093 -10.6066234 45.36517652 -6 43.1875 C-0.29987804 37.90446013 0.1733682 32.19421225 0.5625 24.8125 C0.645 23.636875 0.7275 22.46125 0.8125 21.25 C0.38203728 15.33113764 -1.11487024 10.57600634 -4.6875 5.8125 C-9.21899276 2.5168689 -13.993782 2.64753885 -19.4375 2.8125 Z " fill="#575E6A" transform="translate(1004.4375,338.1875)"/>
<path d="M0 0 C5.43065594 6.48417811 6.99104009 16.75655193 6.69140625 25.01953125 C5.16811503 35.07075608 1.90772367 41.94660098 -6.30859375 48.01953125 C-6.96859375 48.01953125 -7.62859375 48.01953125 -8.30859375 48.01953125 C-8.30859375 48.67953125 -8.30859375 49.33953125 -8.30859375 50.01953125 C-17.65853429 50.49139741 -25.49707136 49.50529293 -33.30859375 44.01953125 C-39.456053 35.2485351 -40.36654855 23.97445011 -38.62109375 13.64453125 C-36.89418455 6.72553321 -34.57584788 0.90724973 -28.3515625 -3.0078125 C-18.87811125 -7.5181172 -8.17547644 -6.78812286 0 0 Z M-27.30859375 5.01953125 C-32.21273936 11.9708903 -32.08587399 19.8201726 -31.30859375 28.01953125 C-30.1712652 34.11736199 -28.20270577 38.00384959 -23.30859375 42.01953125 C-19.6112027 43.86822677 -15.35250715 43.35173267 -11.30859375 43.01953125 C-7.41084115 41.66379121 -5.97534687 39.77678163 -4.05859375 36.26953125 C-2.36493641 32.53392413 -1.60776422 29.1331252 -1.30859375 25.01953125 C-1.22609375 23.92640625 -1.14359375 22.83328125 -1.05859375 21.70703125 C-1.5900072 13.86868287 -3.63970823 7.54669464 -9.30859375 2.01953125 C-15.9624984 -0.19843697 -22.06523185 0.02004664 -27.30859375 5.01953125 Z " fill="#575E6A" transform="translate(428.30859375,339.98046875)"/>
<path d="M0 0 C5.74142771 5.56779582 7.52747652 12.15642782 7.73046875 20.02734375 C7.74234443 21.60153117 7.74871491 23.17576831 7.75 24.75 C7.76224609 25.53568359 7.77449219 26.32136719 7.78710938 27.13085938 C7.80232873 33.19323604 7.35590737 37.88458708 3.0625 42.5 C1.825 43.6446875 1.825 43.6446875 0.5625 44.8125 C-0.0975 45.8025 -0.7575 46.7925 -1.4375 47.8125 C-4.43905509 49.68436696 -7.4175799 50.36222348 -10.875 51 C-11.80183594 51.17917969 -12.72867188 51.35835938 -13.68359375 51.54296875 C-16.55999023 51.82448841 -18.67764962 51.65457075 -21.4375 50.8125 C-21.7675 50.1525 -22.0975 49.4925 -22.4375 48.8125 C-23.159375 48.750625 -23.88125 48.68875 -24.625 48.625 C-28.89310272 47.39199255 -31.11443339 44.51290391 -33.4375 40.8125 C-36.03821719 34.94678605 -37.07581802 29.76224699 -37.375 23.375 C-37.41584717 22.5382373 -37.45669434 21.70147461 -37.4987793 20.83935547 C-37.67511969 14.67767306 -37.05345155 9.9624916 -33.4375 4.8125 C-32.86 3.884375 -32.2825 2.95625 -31.6875 2 C-23.03662483 -6.41057308 -9.48604802 -7.75972678 0 0 Z M-23.4375 3.8125 C-23.4375 4.4725 -23.4375 5.1325 -23.4375 5.8125 C-24.0975 5.8125 -24.7575 5.8125 -25.4375 5.8125 C-28.31467915 9.61037648 -29.15808163 13.16100597 -29.4375 17.8125 C-29.50195312 18.81023437 -29.56640625 19.80796875 -29.6328125 20.8359375 C-29.88117246 27.93903248 -29.56017431 33.83462225 -25.4375 39.8125 C-21.91171683 43.25433595 -19.16636944 44.06489509 -14.375 44.25 C-10.29759164 44.06633296 -7.58936871 43.58232402 -4.4375 40.8125 C0.31092565 34.65713341 0.94986352 27.30152806 0.5625 19.8125 C0.2325 19.1525 -0.0975 18.4925 -0.4375 17.8125 C-0.540625 16.74 -0.64375 15.6675 -0.75 14.5625 C-1.66386029 9.57780753 -3.78246156 6.6514316 -7.125 2.9375 C-12.29539526 0.42217258 -18.42291284 1.22432598 -23.4375 3.8125 Z " fill="#575E6A" transform="translate(769.4375,339.1875)"/>
<path d="M0 0 C6.56008198 5.59754173 8.86819845 12.3856675 9.7097168 20.76391602 C10.45593369 30.29499053 9.88437991 37.8797771 3.625 45.4375 C-1.14429919 50.38639623 -4.99927786 52.65570219 -12 53 C-18.74176718 52.39412223 -24.92700354 50.65937085 -30 46 C-32.09348611 42.79280747 -33 39.86572102 -33 36 C-33.66 35.67 -34.32 35.34 -35 35 C-37.22077044 25.3154372 -35.73138294 15.27439465 -31.1875 6.5 C-23.02319185 -2.83063789 -11.17883164 -6.52677127 0 0 Z M-22.75 7.3125 C-27.94236453 14.32219212 -28.82335979 21.85085726 -27.69140625 30.3046875 C-26.51059721 36.51177218 -24.66107068 41.18563363 -19.25 44.875 C-15.31930529 46.23562509 -12.10937316 46.75012367 -8 46 C-4.50273479 44.36547907 -4.50273479 44.36547907 -2 42 C-2 41.01 -2 40.02 -2 39 C-1.34 39 -0.68 39 0 39 C2.77228776 30.33660075 3.80586854 20.38018325 0.25 11.8125 C-2.41074836 6.77108205 -5.63921459 4.78692847 -11 3 C-15.42517395 3 -19.20911338 4.65683504 -22.75 7.3125 Z " fill="#565E6A" transform="translate(945,446)"/>
<path d="M0 0 C3.5833285 2.82937024 4.62406242 5.61604783 5.23828125 10.09375 C5.31274063 11.57871647 5.37023564 13.06459525 5.4140625 14.55078125 C5.44749756 15.35362549 5.48093262 16.15646973 5.51538086 16.98364258 C5.92964293 28.43556779 5.81375429 39.90627957 5.7265625 51.36328125 C3.0599206 52.6966022 1.55975947 52.03430158 -1.2734375 51.36328125 C-1.2734375 50.37328125 -1.2734375 49.38328125 -1.2734375 48.36328125 C-2.0365625 48.85828125 -2.7996875 49.35328125 -3.5859375 49.86328125 C-6.2734375 51.36328125 -6.2734375 51.36328125 -9.2734375 51.36328125 C-9.2734375 52.02328125 -9.2734375 52.68328125 -9.2734375 53.36328125 C-15.47645584 53.86804766 -20.81245274 54.30176237 -25.76953125 50.12109375 C-29.22664984 46.08030579 -31.97600165 41.20002018 -32.53515625 35.8671875 C-31.92964164 30.07412978 -28.86068951 24.83715812 -24.6484375 20.92578125 C-17.15388343 17.45608029 -9.45832264 16.03417347 -1.2734375 15.36328125 C-1.83798382 13.8768428 -2.42578639 12.39922109 -3.0234375 10.92578125 C-3.51070312 9.69021484 -3.51070312 9.69021484 -4.0078125 8.4296875 C-5.075651 6.23296307 -5.075651 6.23296307 -7.12890625 5.58984375 C-9.37835018 5.35219758 -11.57329638 5.19492373 -13.8359375 5.17578125 C-14.60035156 5.16160156 -15.36476563 5.14742188 -16.15234375 5.1328125 C-18.57497253 5.23094375 -18.57497253 5.23094375 -21.2734375 7.36328125 C-23.9609375 7.48828125 -23.9609375 7.48828125 -26.2734375 7.36328125 C-25.9434375 5.05328125 -25.6134375 2.74328125 -25.2734375 0.36328125 C-16.17783245 -2.82682658 -8.87967975 -4.43983987 0 0 Z M-21.2734375 27.36328125 C-23.86769802 30.96177164 -24.479135 33.43266969 -23.9609375 37.73828125 C-23.7340625 38.93453125 -23.5071875 40.13078125 -23.2734375 41.36328125 C-22.2834375 41.69328125 -21.2934375 42.02328125 -20.2734375 42.36328125 C-19.9434375 43.35328125 -19.6134375 44.34328125 -19.2734375 45.36328125 C-13.15004707 46.66733662 -9.29188893 46.48486282 -3.8046875 43.37109375 C-2.29259004 42.44973645 -2.29259004 42.44973645 -1.2734375 41.36328125 C-1.18674318 39.87456265 -1.16640256 38.38183625 -1.17578125 36.890625 C-1.18061523 35.54194336 -1.18061523 35.54194336 -1.18554688 34.16601562 C-1.19392578 33.22048828 -1.20230469 32.27496094 -1.2109375 31.30078125 C-1.21544922 30.35138672 -1.21996094 29.40199219 -1.22460938 28.42382812 C-1.2364364 26.0702506 -1.25291725 23.71679648 -1.2734375 21.36328125 C-7.68755667 21.36328125 -16.0379561 23.7387172 -21.2734375 27.36328125 Z " fill="#575E6A" transform="translate(623.2734375,445.63671875)"/>
<path d="M0 0 C3.51817306 4.03976267 4.33616819 7.74119654 4.59765625 12.9140625 C4.6606189 14.15603394 4.6606189 14.15603394 4.72485352 15.4230957 C4.76408936 16.30827881 4.8033252 17.19346191 4.84375 18.10546875 C4.8862085 19.01965576 4.92866699 19.93384277 4.97241211 20.87573242 C5.39335743 30.80648469 5.37186395 40.73063923 5.28125 50.66796875 C1.90625 51.29296875 1.90625 51.29296875 -1.71875 51.66796875 C-3.71875 49.66796875 -3.71875 49.66796875 -3.94580078 45.67724609 C-3.94548337 43.95276706 -3.93414124 42.22826842 -3.9140625 40.50390625 C-3.9112326 39.5966983 -3.90840271 38.68949036 -3.90548706 37.75479126 C-3.89427153 34.85071752 -3.86916463 31.94694963 -3.84375 29.04296875 C-3.83372197 27.07682736 -3.82459581 25.11068115 -3.81640625 23.14453125 C-3.79432772 18.31889216 -3.75978865 13.49348235 -3.71875 8.66796875 C-4.37875 8.33796875 -5.03875 8.00796875 -5.71875 7.66796875 C-6.110625 7.15234375 -6.5025 6.63671875 -6.90625 6.10546875 C-8.74343586 4.40872476 -8.74343586 4.40872476 -11.78125 4.16796875 C-15.58678923 4.65121183 -17.62102827 5.46274267 -20.96484375 7.19921875 C-22.30373657 7.88854492 -22.30373657 7.88854492 -23.66967773 8.59179688 C-24.68396851 9.12450195 -24.68396851 9.12450195 -25.71875 9.66796875 C-25.71351318 10.80339111 -25.70827637 11.93881348 -25.70288086 13.10864258 C-25.68478962 17.31859551 -25.67330286 21.52854499 -25.66381836 25.73852539 C-25.6587876 27.56112241 -25.65196231 29.3837154 -25.64331055 31.20629883 C-25.63119003 33.82504269 -25.62550914 36.44373322 -25.62109375 39.0625 C-25.61593246 39.87821976 -25.61077118 40.69393951 -25.60545349 41.53437805 C-25.6051254 44.83810804 -25.66649379 47.51120013 -26.71875 50.66796875 C-30.18375 51.16296875 -30.18375 51.16296875 -33.71875 51.66796875 C-35.14769734 40.82117906 -34.82972605 29.89489675 -34.78125 18.98046875 C-34.77622557 17.00716259 -34.77166433 15.0338552 -34.76757812 13.06054688 C-34.75664588 8.2629899 -34.7394331 3.46549319 -34.71875 -1.33203125 C-31.25375 -1.82703125 -31.25375 -1.82703125 -27.71875 -2.33203125 C-27.38875 -1.34203125 -27.05875 -0.35203125 -26.71875 0.66796875 C-27.04875 1.32796875 -27.37875 1.98796875 -27.71875 2.66796875 C-27.06648438 2.31863281 -26.41421875 1.96929687 -25.7421875 1.609375 C-17.77811616 -2.53711052 -8.09443121 -6.27318419 0 0 Z " fill="#575E6A" transform="translate(1271.71875,337.33203125)"/>
<path d="M0 0 C9.19722536 12.54167094 4.82514967 35.24260546 4.0625 49.8125 C0.5975 50.3075 0.5975 50.3075 -2.9375 50.8125 C-3.87589781 41.1436511 -4.01628894 31.60443746 -3.8125 21.89819336 C-3.74578985 16.46548545 -3.94958954 11.90349021 -5.9375 6.8125 C-6.5975 6.4825 -7.2575 6.1525 -7.9375 5.8125 C-7.9375 5.1525 -7.9375 4.4925 -7.9375 3.8125 C-13.89557828 3.31599348 -17.9942841 3.84509828 -23.2109375 6.83984375 C-24.9375 7.8125 -24.9375 7.8125 -27.9375 8.8125 C-27.77451416 9.62799316 -27.61152832 10.44348633 -27.44360352 11.28369141 C-26.86746195 15.30084059 -26.81223395 19.22667626 -26.83984375 23.2734375 C-26.8412587 24.06400543 -26.84267365 24.85457336 -26.84413147 25.6690979 C-26.84969496 28.17527166 -26.86224056 30.68135358 -26.875 33.1875 C-26.88001972 34.89452995 -26.8845818 36.60156132 -26.88867188 38.30859375 C-26.89965241 42.47659748 -26.91689161 46.64453321 -26.9375 50.8125 C-30.4025 51.3075 -30.4025 51.3075 -33.9375 51.8125 C-36.06370401 47.30995032 -36.06370401 47.30995032 -35.46899414 44.96582031 C-34.81928152 42.3335441 -35.06586368 40.3022193 -35.37109375 37.609375 C-36.11443686 29.7583354 -36.04689828 21.93787205 -36 14.0625 C-35.99496985 12.57552236 -35.99040965 11.08854305 -35.98632812 9.6015625 C-35.97545432 6.00517294 -35.9582752 2.40884763 -35.9375 -1.1875 C-33.03149739 -2.44414978 -31.14145416 -3.1875 -27.9375 -3.1875 C-27.6075 -1.8675 -27.2775 -0.5475 -26.9375 0.8125 C-26.19306641 0.39677734 -26.19306641 0.39677734 -25.43359375 -0.02734375 C-16.94107595 -4.55561225 -8.12481558 -6.05039458 0 0 Z " fill="#575E6A" transform="translate(1116.9375,338.1875)"/>
<path d="M0 0 C0.75 1.8125 0.75 1.8125 1 4 C0.37624689 5.35394028 -0.28655393 6.69110087 -1 8 C-1.556875 7.7834375 -2.11375 7.566875 -2.6875 7.34375 C-8.69513164 5.15177629 -14.17236344 3.62597662 -20.4375 5.875 C-22.15893274 6.93074101 -22.15893274 6.93074101 -23 9 C-23.50042146 11.91538029 -23.50042146 11.91538029 -23 15 C-19.39816378 19.37365827 -14.08732574 20.35573726 -8.8828125 22.01171875 C-3.7349684 23.77649457 -0.86064852 25.55633152 1.9375 30.25 C3.66684853 36.35358306 2.8964444 40.82132417 0 46.3125 C-3.05672085 50.83113082 -6.81452488 51.96971677 -12 53 C-12.95519531 53.22429687 -13.91039062 53.44859375 -14.89453125 53.6796875 C-18.53771346 54.05546227 -20.81387783 53.4091364 -24.25 52.1875 C-25.28640625 51.83042969 -26.3228125 51.47335937 -27.390625 51.10546875 C-30 50 -30 50 -32 48 C-31.625 44.375 -31.625 44.375 -31 41 C-28.46706201 41.46906259 -27.01814921 41.9862506 -24.9375 43.5625 C-20.4672363 45.75007585 -15.89697421 45.56194786 -11 45 C-7.8086826 43.7721495 -7.8086826 43.7721495 -6 41 C-5.9310528 39.62657169 -5.91532292 38.24997898 -5.9375 36.875 C-5.958125 35.59625 -5.97875 34.3175 -6 33 C-7.32 32.34 -8.64 31.68 -10 31 C-10 30.34 -10 29.68 -10 29 C-10.65226562 28.87882812 -11.30453125 28.75765625 -11.9765625 28.6328125 C-16.78646342 27.71056011 -21.39025465 26.69832723 -26 25 C-26 24.34 -26 23.68 -26 23 C-26.66 23 -27.32 23 -28 23 C-31.83295818 18.87146544 -32.13326205 14.45486005 -32 9 C-30.33068514 4.58122538 -27.01996462 1.43313648 -23 -1 C-15.89260875 -3.98961695 -6.89569714 -3.44784857 0 0 Z " fill="#575E6A" transform="translate(1166,337)"/>
<path d="M0 0 C1.14842862 3.01462512 0.98041077 4.94983317 0 8 C-1.32 8 -2.64 8 -4 8 C-4 7.34 -4 6.68 -4 6 C-11.12639295 4.93892741 -16.42735864 4.71367932 -23 8 C-23.33 8.99 -23.66 9.98 -24 11 C-24.66 11 -25.32 11 -26 11 C-28.25915785 20.48039456 -29.7614556 29.09684421 -25.1875 38.0859375 C-23.01348782 41.59010186 -20.95064658 43.43199563 -16.9609375 44.59375 C-11.65751918 45.54143987 -8.37925705 44.72721348 -3.82421875 41.91015625 C-2 41 -2 41 2 41 C2.3125 43.75 2.3125 43.75 2 47 C-2.38566208 51.78435863 -8.02378989 53.02712562 -14.3125 53.4375 C-19.8941426 53.3508883 -24.27610084 50.76136068 -29 48 C-29 47.34 -29 46.68 -29 46 C-29.66 46 -30.32 46 -31 46 C-31.62867668 44.62667716 -32.25273891 43.25124167 -32.875 41.875 C-33.39707031 40.72644531 -33.39707031 40.72644531 -33.9296875 39.5546875 C-34.28289063 38.71164062 -34.63609375 37.86859375 -35 37 C-35.38414062 36.08992188 -35.76828125 35.17984375 -36.1640625 34.2421875 C-37.24527077 30.04871616 -36.99548842 26.51916762 -36.5 22.25 C-36.40887939 21.4544873 -36.31775879 20.65897461 -36.22387695 19.83935547 C-35.12297917 11.83683239 -32.17553156 6.3426648 -26.625 0.5 C-18.08872685 -4.37787037 -8.69786044 -4.2726332 0 0 Z " fill="#575E6A" transform="translate(583,446)"/>
<path d="M0 0 C1.09658936 3.28976808 0.79953138 4.71303767 0 8 C-1.32 8 -2.64 8 -4 8 C-4 7.34 -4 6.68 -4 6 C-9.48420769 5.19167007 -14.56640506 4.53710906 -20 6 C-24.54054394 9.40540796 -26.85378858 13.49818517 -28 19 C-28.84015745 27.19665803 -28.26072399 32.9431759 -24 40 C-24 40.66 -24 41.32 -24 42 C-19.53157117 44.16214298 -14.95971911 45.23106844 -10 45 C-7.73507172 44.19922813 -5.79433849 43.22465187 -3.7265625 42.0078125 C-2 41 -2 41 1 40 C1 42.64 1 45.28 1 48 C-6.3201693 52.08788675 -12.39403064 53.90919119 -20.71484375 51.796875 C-24.48174703 50.48328821 -28.0546008 48.719986 -31 46 C-31.37367017 44.67740426 -31.71240752 43.34394176 -32 42 C-32.66 41.67 -33.32 41.34 -34 41 C-38.09097132 31.85547588 -38.47390011 22.18642485 -35.125 12.6875 C-33.34545455 8.17272727 -33.34545455 8.17272727 -31 7 C-30.70867188 6.37480469 -30.41734375 5.74960937 -30.1171875 5.10546875 C-28.78495809 2.59472871 -27.54550601 1.76023661 -25.125 0.3125 C-24.44695313 -0.10386719 -23.76890625 -0.52023437 -23.0703125 -0.94921875 C-15.54625495 -4.76803286 -7.34300075 -3.54037536 0 0 Z " fill="#585D6A" transform="translate(789,446)"/>
<path d="M0 0 C0.02705729 1.77074917 0.04642195 3.54161711 0.0625 5.3125 C0.07410156 6.29863281 0.08570313 7.28476562 0.09765625 8.30078125 C0 11 0 11 -1 14 C2.63 13.67 6.26 13.34 10 13 C10.625 15.875 10.625 15.875 11 19 C9 21 9 21 6.8359375 21.1953125 C6.02382813 21.17210937 5.21171875 21.14890625 4.375 21.125 C3.55773437 21.10695313 2.74046875 21.08890625 1.8984375 21.0703125 C1.27195312 21.04710937 0.64546875 21.02390625 0 21 C-0.02471455 25.9296024 -0.04286691 30.85916874 -0.05493164 35.78881836 C-0.05996113 37.46590808 -0.06678548 39.14299342 -0.07543945 40.82006836 C-0.08756559 43.230317 -0.09324215 45.64050768 -0.09765625 48.05078125 C-0.10281754 48.80087967 -0.10797882 49.55097809 -0.11329651 50.32380676 C-0.11363785 53.48951232 -0.00887343 55.97337972 1 59 C3.97 59.33 6.94 59.66 10 60 C10.04254356 61.99954746 10.04080783 64.00041636 10 66 C8.36069007 67.63930993 6.50256326 67.21001367 4.25 67.25 C0.01756472 67.19558297 -2.74983774 66.94545954 -6 64 C-9.88046611 57.40320762 -9.16762669 48.05802927 -9.125 40.625 C-9.12306641 39.80153076 -9.12113281 38.97806152 -9.11914062 38.12963867 C-9.076127 32.04858699 -8.75981046 26.03777952 -8 20 C-9.11375 20.061875 -10.2275 20.12375 -11.375 20.1875 C-12.57125 20.125625 -13.7675 20.06375 -15 20 C-15.66 19.01 -16.32 18.02 -17 17 C-16.34 15.68 -15.68 14.36 -15 13 C-13.02 13 -11.04 13 -9 13 C-8.67 9.04 -8.34 5.08 -8 1 C-3 -1 -3 -1 0 0 Z " fill="#565E6B" transform="translate(599,322)"/>
<path d="M0 0 C2.64 0 5.28 0 8 0 C8.90030142 12.18622284 9.11055607 24.34851389 9.125 36.5625 C9.12749756 37.29934021 9.12999512 38.03618042 9.13256836 38.79534912 C9.19999035 63.05715388 9.19999035 63.05715388 4 69 C1.8125 70.25 1.8125 70.25 0 71 C-0.33 71.66 -0.66 72.32 -1 73 C-3.10353495 73.0810206 -5.20795952 73.13919907 -7.3125 73.1875 C-8.48425781 73.22230469 -9.65601563 73.25710938 -10.86328125 73.29296875 C-14 73 -14 73 -15.90625 71.65625 C-17.40545527 69.38602488 -17.21562026 67.65931648 -17 65 C-13 65 -13 65 -9.5625 65.6875 C-6.07753589 66.20560588 -6.07753589 66.20560588 -3.125 65.1875 C2.51217713 59.38452354 0.15282895 46.31956372 0.13037109 38.53100586 C0.12498525 36.30640937 0.13035928 34.08201246 0.13671875 31.85742188 C0.13605828 30.42187456 0.13477777 28.98632737 0.1328125 27.55078125 C0.13168457 26.26856689 0.13055664 24.98635254 0.12939453 23.6652832 C0.00148588 20.04208956 -0.46611688 16.58237457 -1 13 C-0.92050098 10.68427041 -0.77656862 8.36968405 -0.5625 6.0625 C-0.46066406 4.91910156 -0.35882812 3.77570313 -0.25390625 2.59765625 C-0.17011719 1.74042969 -0.08632813 0.88320313 0 0 Z " fill="#565E6A" transform="translate(945,316)"/>
<path d="M0 0 C0.88322574 16.18842049 1.15802608 32.3398876 1.13037109 48.55102539 C1.1249021 52.38106048 1.13041098 56.21098358 1.13671875 60.04101562 C1.13605968 62.48177109 1.13478208 64.92252649 1.1328125 67.36328125 C1.13483673 68.50573807 1.13686096 69.64819489 1.13894653 70.82527161 C1.13579437 71.87204575 1.13264221 72.91881989 1.12939453 73.99731445 C1.12820114 75.37884453 1.12820114 75.37884453 1.12698364 76.7882843 C1 79 1 79 0 81 C-3 81.6875 -3 81.6875 -6 82 C-8.05898935 79.94101065 -7.42484608 75.72200604 -7.55859375 72.890625 C-7.62197182 71.57786591 -7.62197182 71.57786591 -7.68663025 70.23858643 C-8.23077224 57.43754535 -8.11113385 44.62264654 -8.06866455 31.81298828 C-8.05824441 28.32585271 -8.05382784 24.83870931 -8.04882812 21.3515625 C-8.03825601 14.56768992 -8.02129914 7.7838472 -8 1 C-5.10765685 0.17361624 -3.11257569 0 0 0 Z " fill="#555F6B" transform="translate(976,416)"/>
<path d="M0 0 C-0.00333092 0.94149399 -0.00333092 0.94149399 -0.00672913 1.90200806 C-0.02920366 8.55559711 -0.04407816 15.20917505 -0.05493164 21.86279297 C-0.05989799 24.33154744 -0.06667331 26.80029907 -0.07543945 29.26904297 C-0.12160643 42.62487903 -0.08488385 55.93466404 0.7353363 69.26992798 C0.78343948 70.10301483 0.83154266 70.93610168 0.88110352 71.79443359 C0.95120384 72.87463272 0.95120384 72.87463272 1.02272034 73.97665405 C0.99853348 76.13059992 0.60223947 77.93827832 0 80 C-3.465 80.495 -3.465 80.495 -7 81 C-8.26229933 68.81233087 -8.07072828 56.67266717 -7.97949219 44.43725586 C-7.90889811 34.02741634 -7.993908 23.7220209 -8.82397461 13.34106445 C-9.06222677 8.81889973 -8.69790919 4.46661882 -8 0 C-4.71023192 -1.09658936 -3.28696233 -0.79953138 0 0 Z " fill="#575E6A" transform="translate(653,417)"/>
<path d="M0 0 C0.33 0.99 0.66 1.98 1 3 C1.7115625 2.01 1.7115625 2.01 2.4375 1 C5.75323315 -1.58788929 7.88950467 -1.40382883 11.9765625 -1.3359375 C14 -1 14 -1 16 1 C15.625 4.125 15.625 4.125 15 7 C14.01 7.33 13.02 7.66 12 8 C11.67 7.67 11.34 7.34 11 7 C8.31448542 6.71731425 6.63248789 6.60176688 4.3125 8.0625 C0.30660246 13.9759678 0.78728598 20.78908864 0.9375 27.625 C1.03573597 35.82361069 0.86235085 43.83846519 0 52 C-3.465 52.495 -3.465 52.495 -7 53 C-7.8526841 41.21468759 -8.09040363 29.50279928 -7.96289062 17.68603516 C-7.95451172 16.61659668 -7.94613281 15.5471582 -7.9375 14.4453125 C-7.92589844 13.49156738 -7.91429687 12.53782227 -7.90234375 11.55517578 C-7.91021922 9.04019456 -7.91021922 9.04019456 -8.546875 6.82763672 C-9.24155328 4.02571775 -8.39217523 2.45288018 -7 0 C-4.07083439 -1.32284898 -3.12177395 -1.04059132 0 0 Z " fill="#565E6A" transform="translate(565,336)"/>
<path d="M0 0 C-0.00523682 0.67240723 -0.01047363 1.34481445 -0.01586914 2.03759766 C-0.10343195 15.09664878 -0.06708935 28.10408773 0.73217773 41.14306641 C0.78059814 41.99046387 0.82901855 42.83786133 0.87890625 43.7109375 C0.9260376 44.44618652 0.97316895 45.18143555 1.02172852 45.93896484 C0.99884672 48.10939299 0.60864734 49.92316294 0 52 C-2.97 52.495 -2.97 52.495 -6 53 C-7.5646893 49.5253803 -8.24712736 46.83063503 -8.22705078 43.02612305 C-8.22689972 42.06550461 -8.22674866 41.10488617 -8.22659302 40.11515808 C-8.21627045 39.0910231 -8.20594788 38.06688812 -8.1953125 37.01171875 C-8.1924826 35.95338333 -8.18965271 34.89504791 -8.18673706 33.80464172 C-8.1755629 30.43214502 -8.15046307 27.05991613 -8.125 23.6875 C-8.11496664 21.3977903 -8.10584141 19.10807643 -8.09765625 16.81835938 C-8.0756326 11.21214857 -8.04218236 5.60609342 -8 0 C-4.90279155 -0.87840996 -3.09354597 -0.99435406 0 0 Z " fill="#565E6A" transform="translate(533,445)"/>
<path d="M0 0 C1.56204362 2.84843248 0.81171024 4.87254903 0.0625 7.9375 C-2.5775 8.2675 -5.2175 8.5975 -7.9375 8.9375 C-9.09691038 5.45926885 -8.64570884 3.47854422 -7.9375 -0.0625 C-2.52610759 -1.38528481 -2.52610759 -1.38528481 0 0 Z " fill="#575E6A" transform="translate(532.9375,420.0625)"/>
<path d="" fill="#7B515D" transform="translate(0,0)"/>
<path d="" fill="#7B515D" transform="translate(0,0)"/>
<path d="" fill="#7B515D" transform="translate(0,0)"/>
<path d="" fill="#7B515D" transform="translate(0,0)"/>
<path d="" fill="#7B515D" transform="translate(0,0)"/>
<path d="" fill="#7B515D" transform="translate(0,0)"/>
<path d="" fill="#7B515D" transform="translate(0,0)"/>
<path d="" fill="#7B515D" transform="translate(0,0)"/>
<path d="" fill="#7B515D" transform="translate(0,0)"/>
<path d="" fill="#7B515D" transform="translate(0,0)"/>
<path d="" fill="#7B515D" transform="translate(0,0)"/>
<path d="" fill="#7B515D" transform="translate(0,0)"/>
</svg>
