<?xml version="1.0" encoding="utf-8"?>
<!-- Generator: Adobe Illustrator 19.0.0, SVG Export Plug-In . SVG Version: 6.00 Build 0)  -->
<svg version="1.1" id="layer" xmlns="http://www.w3.org/2000/svg" xmlns:xlink="http://www.w3.org/1999/xlink" x="0px" y="0px"
	 viewBox="-153 -46 652 652" style="enable-background:new -153 -46 652 652;" xml:space="preserve">
<style type="text/css">
	.st0{fill:#2096D5;}
	.st1{fill:#C61477;}
	.st2{fill:#1E2B5E;}
	.st3{fill:#8A8A8A;}
</style>
<path class="st0" d="M-59.3,284h-15.9l75-113.3l8.4,12.2L-59.3,284z M22.2,203.1l-8.4-12.2L-47.1,284h15.9L22.2,203.1z M-10.5,155.9
	L-10.5,155.9c-0.5-0.8-1.5-2.7-3.6-2.7c-2.1,0-3,2-3.6,2.7h0L-103.4,284h15.9l81.9-121.1L-10.5,155.9z M-51.2,174.7L-51.2,174.7
	c-0.5-0.8-1.5-2.7-3.6-2.7c-2.1,0-3,2-3.6,2.7h0L-131.5,284h15.9l69.1-102.1L-51.2,174.7z"/>
<path class="st1" d="M21.7,284H5.8l-69-102l4.8-7.2c0.5-0.7,1.4-2.7,3.6-2.7c2.1,0,3,1.9,3.6,2.7h0L21.7,284z M-10.5,155.9
	L-10.5,155.9c-0.5-0.8-1.5-2.7-3.6-2.7c-2.1,0-3,2-3.6,2.7l-4.8,7.2L62,284h15.9L-10.5,155.9z M33.9,284h15.9l-77.2-113.5l-8.3,12.4
	L33.9,284z"/>
<path class="st2" d="M0,195.2l-8.4-12.1l8.2-12.4l8.4,12.2L0,195.2z M22.1,203.1l-8.4-12.2l-8,12.3l8.4,12.1L22.1,203.1z
	 M-10.5,155.9L-10.5,155.9c-0.5-0.8-1.5-2.7-3.6-2.7c-0.3,0-0.5,0-0.7,0.1c-1.6,0.4-2.3,2-2.8,2.6h0l-4.3,6.5l-0.5,0.7l8.5,12.1
	l8.3-12.3L-10.5,155.9z M-19,182.7l-8.3,12.3l-8.3-12.1l8.3-12.4L-19,182.7z M-21.7,203.1l8.2-12.4l8.3,12.2l-8.2,12.2L-21.7,203.1z
	 M-7.6,223.6l8-12.3l8.3,12.2l-8,12.2L-7.6,223.6z M-51.2,174.8l4.7,7.1l0.1,0.1l-8.4,12.4l-8.3-12.3l4.8-7.2h0
	c0.5-0.6,1.2-2.2,2.8-2.6c0.2-0.1,0.5-0.1,0.7-0.1C-52.7,172.1-51.8,174-51.2,174.8L-51.2,174.8z M-40.8,215l-8.2-12.1l8.3-12.4
	l8.2,12.3L-40.8,215z M-27,235.5l-8.2-12.1l8.2-12.3l8.2,12.2L-27,235.5z M-12.9,256.3l-8.2-12.1l8-12.3l8.2,12.2L-12.9,256.3z"/>
<path d="M111.5,228.3c-2.6,0-6.8-0.3-8.7-0.3c-1.9,0-6.1,0.3-8.7,0.3v-2.1l5.5-0.2v-35l-5.5-0.2v-2.1c2.6,0,6.8,0.2,8.7,0.2
	c1.9,0,6.1-0.2,8.7-0.2v2.1l-5.5,0.2v35l5.5,0.2V228.3z M127.4,198.4c-6,0-14.4,4.1-14.4,15.4c0,10.1,5.2,15.5,13.8,15.5
	c7.6,0,11.4-7.3,11.4-7.3l-1.8-1.1c0,0-3.3,6-9,6c-7.8,0-8-8.6-8-12.9c0-6.3,1.2-13.2,8.6-13.2c3.8,0,4.9,2.4,4.9,3.4
	c0,0-2.4,0.3-2.4,2.9c0,1.8,1.3,3,3.1,3c2,0,3.8-1.6,3.8-4.2C137.3,203.4,135.9,198.4,127.4,198.4 M169.6,223c0,0-0.6,3-2.6,3
	c-1.5,0-2.3-1.3-2.2-3.5l0.3-12.6c0.1-5,0-11.4-10-11.4c-6.8,0-11.8,2.7-11.8,6.5c0,2.3,1.6,3.4,3.3,3.4c1.9,0,3-1.3,3-2.9
	c0-1.8-1.3-2.5-1.3-2.5c0.4-0.6,2.1-2.4,6-2.4c4.9,0,5.3,4,5.1,9.7v1.8c-8.5-0.1-18.1,0.7-18.1,8.8c0,6.6,5.2,8.6,9.6,8.6
	c4.3,0,6.9-2.1,8.5-4.8h0.1c0.9,3.3,3.2,4.5,5.6,4.5c5.5,0,6.5-5.6,6.5-5.6L169.6,223z M159.2,218.8c-0.1,4.7-3.4,7.5-6.6,7.5
	c-3.5,0-5.2-2.5-5.2-6.2c0-4,2.1-6,12-5.9L159.2,218.8z M183.4,225.9V212c0-6.3,4.6-10.5,8.5-10.5c4.1,0,5,3.1,5,9.8v14.5l-5.1,0.3
	v2.1c3.1,0,4.3-0.3,8-0.3c3.6,0,4.9,0.3,8,0.3v-2.1l-5.1-0.3v-16.3c0-7.7-3.6-11-8.7-11c-4.8,0-8.5,2.7-10.7,6.1h-0.1v-21.1
	l-10.7,0.6v2.1c3.2,0,5.1,0,5.1,3.5v36l-5.1,0.3v2.1c3.1,0,4.4-0.3,8-0.3c3.7,0,5,0.3,8,0.3v-2.1L183.4,225.9z M220.2,225.9v-13.8
	c0-6.4,4.7-10.5,8.5-10.5c4.1,0,5,3.1,5,9.8v14.5l-5.1,0.3v2.1c3.1,0,4.3-0.3,8-0.3c3.6,0,4.9,0.3,8,0.3v-2.1l-5.1-0.3v-16.3
	c0-7.7-3.6-11-8.7-11c-5,0-8.6,2.8-10.9,6.3h-0.1l-0.2-6l-10.3,0.6v2.1c3.8,0,5.1,0,5.1,3.3v20.8l-5.1,0.3v2.1c3.1,0,4.3-0.3,8-0.3
	c3.6,0,5,0.3,8,0.3v-2.1L220.2,225.9z M266,214.2c0,2.6,0.2,4,0.2,6.8c0,3-0.2,4.8-0.2,7.8h2.1c0,0,0-1.6,1.1-1.6
	c0.9,0,4.4,2.4,10.6,2.4c6.8,0,13.2-3.7,13.2-12.4c0-15.8-21.3-9.7-21.3-21.1c0-4,3.2-6.3,6.8-6.3c6.9,0,9.5,6.8,9.8,10h2.1
	c0-2-0.1-3.3-0.1-6.2c0-2,0.1-3.4,0.1-5.5h-2.1c0,0-0.3,1.5-1.2,1.5c-0.8,0-3.1-1.9-8.1-1.9c-4.9,0-12,3.1-12,11.9
	c0,14.8,20.6,8.3,20.6,20.8c0,4-2.7,6.8-7.7,6.8c-8.4,0-11.5-9.8-11.7-13H266z M310.5,198.4c-6,0-14.4,4.1-14.4,15.4
	c0,10.1,5.2,15.5,13.8,15.5c7.7,0,11.4-7.3,11.4-7.3l-1.8-1.1c0,0-3.3,6-9,6c-7.8,0-8-8.6-8-12.9c0-6.3,1.2-13.2,8.6-13.2
	c3.8,0,4.9,2.4,4.9,3.4c0,0-2.4,0.3-2.4,2.9c0,1.8,1.3,3,3.1,3c2,0,3.8-1.6,3.8-4.2C320.4,203.4,319,198.4,310.5,198.4 M332.8,225.9
	V212c0-6.3,4.6-10.5,8.5-10.5c4.1,0,5,3.1,5,9.8v14.5l-5.1,0.3v2.1c3.1,0,4.3-0.3,8-0.3c3.6,0,4.9,0.3,8,0.3v-2.1l-5.1-0.3v-16.3
	c0-7.7-3.6-11-8.7-11c-4.8,0-8.5,2.7-10.7,6.1h-0.1v-21.1l-10.7,0.6v2.1c3.2,0,5.1,0,5.1,3.5v36l-5.1,0.3v2.1c3.1,0,4.4-0.3,8-0.3
	c3.7,0,5,0.3,8,0.3v-2.1L332.8,225.9z M357.5,214.2c0,10.7,7,15,14.3,15c7.5,0,14.4-4.9,14.4-15.6c0-10.7-7-15-14.4-15
	C364.6,198.6,357.5,203.5,357.5,214.2 M379.5,213.9c0,8.6-2.4,13.2-7.7,13.2c-5.1,0-7.6-4.6-7.6-13.2c0-8.5,2.5-13.2,7.6-13.2
	C377.1,200.7,379.5,205.3,379.5,213.9 M389.3,214.2c0,10.7,7,15,14.3,15c7.5,0,14.4-4.9,14.4-15.6c0-10.7-7-15-14.4-15
	C396.4,198.6,389.3,203.5,389.3,214.2 M411.3,213.9c0,8.6-2.4,13.2-7.7,13.2c-5.1,0-7.6-4.6-7.6-13.2c0-8.5,2.5-13.2,7.6-13.2
	C408.9,200.7,411.3,205.3,411.3,213.9 M430.4,225.9v-42.2l-10.8,0.6v2.2c3.2,0,5.1,0,5.1,3.4v35.9l-5.1,0.3v2.1c3.1,0,4.4-0.3,8-0.3
	c3.7,0,5,0.3,8,0.3v-2.1L430.4,225.9z M93.7,269.9c0,10.7,7,15,14.3,15c7.5,0,14.4-4.9,14.4-15.6c0-10.7-7-15-14.4-15
	C100.8,254.3,93.7,259.2,93.7,269.9 M115.7,269.6c0,8.6-2.4,13.2-7.7,13.2c-5.1,0-7.6-4.6-7.6-13.2c0-8.5,2.5-13.2,7.6-13.2
	C113.3,256.4,115.7,261.1,115.7,269.6 M149.6,243.4c0-3.6-3.6-5.8-8.4-5.8c-5.4,0-11.3,3.8-11.3,12.7v5h-5.8v2.4h5.8v23.8l-5.1,0.3
	v2.1c3.1,0,4.3-0.3,8-0.3c4,0,6.8,0.3,9.8,0.3v-2.1l-7-0.3v-23.8h7.6v-2.4h-7.8l-0.2-5.2c-0.3-8.3,2.7-10.3,6-10.3
	c2.5,0,3.1,1.7,3.1,1.7s-1.1,0.8-1.1,2.3c0,1.8,1.4,3.1,2.9,3.1C148.3,247,149.6,245.5,149.6,243.4 M161.4,284.1
	c3.1,0,5-0.3,7.5-0.3c2.5,0,4.3,0.3,7.5,0.3v-2.1c-4.8,0-6.2-0.3-6.2-6v-27.2h0.1l13.4,35.1h2.6l13.6-35.1h0.1v32.9l-5.6,0.3v2.1
	c2.5,0,6.1-0.3,8.7-0.3c2.5,0,6.4,0.3,8.9,0.3v-2.1l-5.6-0.3v-35l5.6-0.3v-2.1l-12.9,0.2L187.1,275H187l-11.5-30.4l-13.1-0.2v2.1
	l5.3,0.3V276c0,5.7-1.4,6-6.2,6V284.1z M236.8,276.6c0,0-3.3,6-9,6c-8.5,0-7.9-10.1-8-14H238c0,0,0.3-1.5,0.3-3.1
	c0-3.7-1.3-11.2-11.4-11.2c-5.1,0-13.5,4.1-13.5,15.3c0,10.1,5.2,15.5,13.8,15.5c7.7,0,11.4-7.3,11.4-7.3L236.8,276.6z M219.9,266.4
	c0.5-6.8,2.9-10,6.7-10c5,0,5.5,4.8,5.5,7.4c0,1.4-0.2,2.6-0.2,2.6H219.9 M269,281.6v-42.1l-10.7,0.6v2.1c3.2,0,5.1,0,5.1,3.5v11.3
	h-0.1c-1.4-1.1-3.8-2.4-7.5-2.4c-4.8,0-13.7,3.2-13.7,15.9c0,8.4,3.8,14.4,10.7,14.4c5.1,0,8.8-2.9,10.8-6.5h0.1l0.2,6.1l10.3-0.6
	v-2.1L269,281.6z M263.3,271.6c0,5.6-4.5,10-8.3,10c-5.7,0-6.8-6.1-6.8-12.2c0-10.2,4.4-12.5,8.2-12.5c4.3,0,6.3,2.3,7,3.1V271.6
	 M286.8,281.6v-26.9l-10.8,0.6v2.1c3.8,0,5.1,0,5.1,3.4v20.7l-5.1,0.3v2.1c3.1,0,4.3-0.3,8-0.3c3.6,0,5,0.3,8,0.3v-2.1L286.8,281.6z
	 M284,239.9c-2.1,0-3.7,1.6-3.7,3.7c0,2.1,1.6,3.7,3.7,3.7c2.1,0,3.7-1.6,3.7-3.7C287.7,241.5,286.1,239.9,284,239.9 M307.9,254.2
	c-6,0-14.4,4.1-14.4,15.4c0,10.1,5.2,15.5,13.8,15.5c7.7,0,11.4-7.3,11.4-7.3l-1.8-1.1c0,0-3.3,6-9,6c-7.8,0-8-8.6-8-12.9
	c0-6.3,1.2-13.2,8.6-13.2c3.8,0,4.9,2.4,4.9,3.4c0,0-2.4,0.3-2.4,2.9c0,1.8,1.3,3,3.1,3c2,0,3.8-1.6,3.8-4.2
	C317.8,259.1,316.4,254.2,307.9,254.2 M331.4,281.6v-26.9l-10.8,0.6v2.1c3.8,0,5.1,0,5.1,3.4v20.7l-5.1,0.3v2.1c3.1,0,4.3-0.3,8-0.3
	c3.6,0,5,0.3,8,0.3v-2.1L331.4,281.6z M328.6,239.9c-2.1,0-3.7,1.6-3.7,3.7c0,2.1,1.6,3.7,3.7,3.7c2.1,0,3.7-1.6,3.7-3.7
	C332.3,241.5,330.7,239.9,328.6,239.9 M349.2,281.6v-13.8c0-6.4,4.7-10.5,8.5-10.5c4.1,0,5,3.1,5,9.8v14.5l-5.1,0.3v2.1
	c3.1,0,4.3-0.3,8-0.3c3.6,0,4.9,0.3,8,0.3v-2.1l-5.1-0.3v-16.3c0-7.7-3.6-11-8.7-11c-5,0-8.6,2.8-10.8,6.3h-0.1l-0.2-6l-10.3,0.6
	v2.1c3.8,0,5.1,0,5.1,3.3v20.8l-5.1,0.3v2.1c3.1,0,4.3-0.3,8-0.3c3.6,0,5,0.3,8,0.3v-2.1L349.2,281.6z M398.3,276.6c0,0-3.3,6-9,6
	c-8.5,0-7.9-10.1-8-14h18.2c0,0,0.3-1.5,0.3-3.1c0-3.7-1.3-11.2-11.4-11.2c-5.1,0-13.5,4.1-13.5,15.3c0,10.1,5.2,15.5,13.8,15.5
	c7.7,0,11.4-7.3,11.4-7.3L398.3,276.6z M381.4,266.4c0.5-6.8,2.9-10,6.7-10c5,0,5.5,4.8,5.5,7.4c0,1.4-0.2,2.6-0.2,2.6H381.4
	 M448.1,278.7c0,0-0.6,3-2.6,3c-1.5,0-2.3-1.3-2.2-3.5l0.3-12.6c0.1-5,0-11.4-10-11.4c-6.8,0-11.8,2.7-11.8,6.5
	c0,2.3,1.6,3.4,3.3,3.4c1.9,0,3-1.3,3-2.9c0-1.8-1.3-2.5-1.3-2.5c0.4-0.6,2.1-2.4,6-2.4c4.9,0,5.3,4,5.1,9.7v1.8
	c-8.5-0.1-18.1,0.7-18.1,8.8c0,6.6,5.2,8.6,9.6,8.6c4.3,0,6.9-2.1,8.5-4.8h0.1c0.9,3.3,3.2,4.5,5.6,4.5c5.5,0,6.5-5.6,6.5-5.6
	L448.1,278.7z M437.8,274.5c-0.1,4.7-3.4,7.5-6.6,7.5c-3.5,0-5.2-2.5-5.2-6.2c0-4,2.1-6,12-5.9L437.8,274.5z M459.2,257.8h8.1v-2.4
	h-8.1v-11.7c0,0-2.3,1.2-5.7,1.2v10.5H448v2.4h5.5v17.7c0,5,0.1,9.3,7.8,9.3c5.8,0,7.3-5.7,7.3-5.7l-2-0.8c0,0-1.5,3.9-4.2,3.9
	c-3.1,0-3.1-2.6-3.1-7.5V257.8z M93,339.8c3.1,0,5-0.3,7.5-0.3c2.5,0,4.3,0.3,7.5,0.3v-2.1c-4,0-6.5-0.7-6.5-7.2v-25.3h0.1
	l12.5,34.5h3.1l12.4-34.5h0.1v32.2l-5,0.3v2.1c2.5,0,7-0.3,9.5-0.3c2.5,0,7.2,0.3,9.7,0.3v-2.1l-5.1-0.3v-35l5.1-0.3v-2.1l-15,0.2
	L119,327h-0.1l-9.7-26.6L94,300.1v2.1l5,0.3v28c0,6.5-2.6,7.2-6,7.2V339.8z M144.9,325.6c0,10.7,7.1,15,15.2,15
	c8.3,0,15.3-4.9,15.3-15.6c0-10.7-7.1-15-15.3-15C152.1,310,144.9,315,144.9,325.6 M166.3,325.3c0,8.6-1.7,13.2-6.1,13.2
	c-4.3,0-6.1-4.6-6.1-13.2c0-8.5,1.8-13.2,6.1-13.2C164.6,312.2,166.3,316.8,166.3,325.3 M180.7,330c0,7.1,2.4,10.5,9,10.5
	c5,0,8.5-2.5,10.5-5.9h0.1l0.2,5.6l12-0.6v-2.1l-4.3-0.1v-26.8l-12.5,0.6v2.1c2.8,0,4.2,0,4.2,3.5V327c0,6.1-3.9,9.8-7,9.8
	c-3.9,0-4-3.1-4-9.1v-17.2l-12.5,0.6v2.1c3.2,0,4.3,0,4.3,3.5V330z M226.4,337.4v-13.9c0-6.1,3.8-9.8,6.9-9.8c3.3,0,4.1,2.4,4.1,9.2
	v14.5l-4.1,0.3v2.1c3.1,0,4.6-0.3,8.3-0.3c3.6,0,5.3,0.3,8.4,0.3v-2.1l-4.3-0.3v-16.3c0-7.9-3.8-11.1-9-11.1c-5,0-8.3,2.5-10.5,6
	H226l-0.1-5.5l-12,0.6v2.1c3.2,0,4.3,0,4.3,3.3v20.8l-4.3,0.3v2.1c3.1,0,4.8-0.3,8.4-0.3c3.6,0,5.3,0.3,8.3,0.3v-2.1L226.4,337.4z
	 M261.4,313.5h7v-2.4h-7v-11.7c0,0-3.5,1.2-8.2,1.2v10.5h-4.7v2.4h4.7v18.1c0,4.9,0.8,9.1,8.5,9.1c6.6,0,7.9-5.8,7.9-5.8l-2-0.8
	c0,0-1.3,3.3-3.6,3.3c-2.6,0-2.7-2.1-2.6-6V313.5z M95.7,380.9c0,2.6,0.2,4.4,0.2,7.3c0,3-0.2,4.8-0.2,7.8h2.1c0,0,0.3-1.5,1.6-1.5
	c1.1,0,4.6,2.3,11.2,2.3c7.6,0,14.6-3.7,14.6-12.9c0-16.8-22.3-10.7-22.3-21.3c0-3.3,2.6-5.6,6.3-5.6c6.7,0,10.3,7.7,10.8,10.4h2.1
	c0-2-0.1-3.7-0.1-6.6c0-2,0.1-3.5,0.1-5.6H120c0,0-0.3,1.4-1.4,1.4c-1,0-3.7-1.7-8.9-1.7c-5.7,0-13.4,3.1-13.4,12.4
	c0,15.9,21.6,9.4,21.6,21c0,3.3-2.1,6.1-7.2,6.1c-8.2,0-12.3-10.7-12.8-13.5H95.7z M140,393.1v-26.9l-12.5,0.6v2.1
	c3.1,0,4.3,0,4.3,3.5v20.7l-4.3,0.3v2.1c3.1,0,4.8-0.3,8.4-0.3c3.6,0,5.4,0.3,8.4,0.3v-2.1L140,393.1z M136,351.2
	c-2.6,0-5.1,1.7-5.1,4.8c0,3.1,2.4,4.8,5.1,4.8c2.6,0,5-1.7,5-4.8C141,352.9,138.5,351.2,136,351.2 M158.2,393.1v-13.9
	c0-6.1,3.8-9.8,6.9-9.8c3.3,0,4.1,2.4,4.1,9.2v14.5l-4.1,0.3v2.1c3.1,0,4.6-0.3,8.3-0.3c3.6,0,5.3,0.3,8.4,0.3v-2.1l-4.3-0.3v-16.3
	c0-7.9-3.8-11.1-9-11.1c-5,0-8.3,2.5-10.5,6h-0.1l-0.1-5.5l-12,0.6v2.1c3.2,0,4.3,0,4.3,3.3v20.8l-4.3,0.3v2.1
	c3.1,0,4.8-0.3,8.4-0.3c3.6,0,5.3,0.3,8.3,0.3v-2.1L158.2,393.1z M213,390.2c0,0-0.6,2.7-2.4,2.7c-1.4,0-2-1.3-1.9-3.3l0.3-11.9
	c0.1-5.9-0.8-12.1-11.8-12.1c-6.8,0-12.5,2.5-12.5,7c0,2.5,1.8,4,4.2,4c2.6,0,4.2-1.6,4.2-3.8c0-2.1-1.4-2.9-1.4-2.9
	c0.3-0.6,1.7-2.2,4.8-2.2c4.1,0,4.5,3.3,4.3,8.3v3.1c-8.5-0.1-18.1,0.7-18.1,8.8c0,6.6,5.2,8.6,9.6,8.6c4.6,0,7.2-2,8.6-4.6h0.1
	c1.1,3.1,3.6,4.4,6.7,4.4c6.5,0,7.3-5.7,7.3-5.7L213,390.2z M200.6,386.2c-0.1,4.5-2.9,6.6-5.3,6.6c-2.6,0-4.1-1.9-4.1-5.6
	c0-4,1.8-6,9.5-5.9L200.6,386.2z M227.7,393.1v-26.9l-12.5,0.6v2.1c3.1,0,4.3,0,4.3,3.5v20.7l-4.3,0.3v2.1c3.1,0,4.8-0.3,8.4-0.3
	c3.6,0,5.4,0.3,8.4,0.3v-2.1L227.7,393.1z M223.6,351.2c-2.6,0-5.1,1.7-5.1,4.8c0,3.1,2.4,4.8,5.1,4.8c2.6,0,5-1.7,5-4.8
	C228.7,352.9,226.2,351.2,223.6,351.2"/>
<path class="st3" d="M6.8,153.2c1.2,0,2.3,0.3,3.4,0.9c1.1,0.6,2,1.4,2.6,2.6c0.6,1.1,0.9,2.3,0.9,3.5c0,1.2-0.3,2.4-0.9,3.5
	c-0.6,1.1-1.5,2-2.6,2.6c-1.1,0.6-2.3,0.9-3.5,0.9s-2.4-0.3-3.5-0.9c-1.1-0.6-2-1.5-2.6-2.6c-0.6-1.1-0.9-2.2-0.9-3.5
	c0-1.2,0.3-2.4,0.9-3.5c0.6-1.1,1.5-2,2.6-2.6C4.4,153.5,5.6,153.2,6.8,153.2 M6.8,154.6c-1,0-1.9,0.2-2.7,0.7
	c-0.9,0.5-1.6,1.2-2.1,2.1c-0.5,0.9-0.8,1.8-0.8,2.8c0,1,0.2,1.9,0.7,2.8c0.5,0.9,1.2,1.6,2.1,2.1c0.9,0.5,1.8,0.7,2.8,0.7
	c1,0,1.9-0.2,2.8-0.7c0.9-0.5,1.6-1.2,2.1-2.1c0.5-0.9,0.7-1.8,0.7-2.8c0-1-0.3-1.9-0.8-2.8c-0.5-0.9-1.2-1.6-2.1-2.1
	C8.7,154.8,7.7,154.6,6.8,154.6 M3.6,163.9v-7.4h1.5c1.4,0,2.2,0,2.4,0c0.5,0,0.9,0.1,1.2,0.3c0.3,0.2,0.5,0.4,0.7,0.7
	c0.2,0.3,0.3,0.7,0.3,1.1c0,0.5-0.2,1-0.5,1.4c-0.3,0.4-0.8,0.6-1.5,0.7c0.2,0.1,0.4,0.2,0.5,0.3c0.1,0.1,0.3,0.3,0.5,0.6
	c0.1,0.1,0.2,0.4,0.5,0.9l0.9,1.5H8.2l-0.6-1.2c-0.4-0.8-0.8-1.3-1-1.5c-0.3-0.2-0.6-0.3-1-0.3H5.1v3H3.6z M5.1,159.7h0.6
	c0.9,0,1.4,0,1.6-0.1c0.2-0.1,0.4-0.2,0.5-0.3c0.1-0.2,0.2-0.4,0.2-0.6c0-0.2-0.1-0.4-0.2-0.6c-0.1-0.2-0.3-0.3-0.5-0.3
	c-0.2-0.1-0.8-0.1-1.6-0.1H5.1V159.7z"/>
</svg>
